solid 
   facet normal 0.000000e+000 0.000000e+000 -1.000000e+000
      outer loop
         vertex 1.074000e+004 2.000000e+003 0.000000e+000
         vertex 1.074000e+004 2.100000e+003 0.000000e+000
         vertex 1.153005e+004 2.100000e+003 0.000000e+000
      endloop
   endfacet
   facet normal 0.000000e+000 0.000000e+000 -1.000000e+000
      outer loop
         vertex 1.210000e+004 -1.500000e+002 0.000000e+000
         vertex 1.154000e+004 -7.579123e-014 0.000000e+000
         vertex 1.154000e+004 2.000000e+003 0.000000e+000
      endloop
   endfacet
   facet normal 0.000000e+000 0.000000e+000 -1.000000e+000
      outer loop
         vertex 1.154000e+004 -7.579123e-014 0.000000e+000
         vertex 1.085000e+004 -1.500000e+002 0.000000e+000
         vertex 1.085000e+004 0.000000e+000 0.000000e+000
      endloop
   endfacet
   facet normal 0.000000e+000 0.000000e+000 -1.000000e+000
      outer loop
         vertex 4.584340e+003 4.820000e+003 0.000000e+000
         vertex -3.000000e+002 5.300000e+003 0.000000e+000
         vertex 1.210000e+004 5.300000e+003 0.000000e+000
      endloop
   endfacet
   facet normal 0.000000e+000 0.000000e+000 -1.000000e+000
      outer loop
         vertex 1.800000e+002 1.498953e-028 0.000000e+000
         vertex 9.900000e+003 -1.500000e+002 0.000000e+000
         vertex -3.000000e+002 -1.500000e+002 0.000000e+000
      endloop
   endfacet
   facet normal 0.000000e+000 0.000000e+000 -1.000000e+000
      outer loop
         vertex 9.900000e+003 -1.500000e+002 0.000000e+000
         vertex 1.800000e+002 1.498953e-028 0.000000e+000
         vertex 9.900000e+003 0.000000e+000 0.000000e+000
      endloop
   endfacet
   facet normal 0.000000e+000 0.000000e+000 -1.000000e+000
      outer loop
         vertex 4.584340e+003 1.100000e+003 0.000000e+000
         vertex 4.480000e+003 1.000000e+003 0.000000e+000
         vertex 4.480000e+003 4.820000e+003 0.000000e+000
      endloop
   endfacet
   facet normal 0.000000e+000 0.000000e+000 -1.000000e+000
      outer loop
         vertex 7.004340e+003 8.200000e+002 0.000000e+000
         vertex 6.895660e+003 8.200000e+002 0.000000e+000
         vertex 6.895660e+003 1.000000e+003 0.000000e+000
      endloop
   endfacet
   facet normal 0.000000e+000 0.000000e+000 -1.000000e+000
      outer loop
         vertex 9.904340e+003 2.100000e+003 0.000000e+000
         vertex 9.904340e+003 2.000000e+003 0.000000e+000
         vertex 6.995660e+003 2.000000e+003 0.000000e+000
      endloop
   endfacet
   facet normal 0.000000e+000 0.000000e+000 -1.000000e+000
      outer loop
         vertex 6.995660e+003 2.000000e+003 0.000000e+000
         vertex 6.895660e+003 1.100000e+003 0.000000e+000
         vertex 6.895660e+003 2.100000e+003 0.000000e+000
      endloop
   endfacet
   facet normal -0.000000e+000 -0.000000e+000 -1.000000e+000
      outer loop
         vertex 4.480000e+003 4.820000e+003 0.000000e+000
         vertex 4.584340e+003 4.820000e+003 0.000000e+000
         vertex 4.584340e+003 1.100000e+003 0.000000e+000
      endloop
   endfacet
   facet normal 0.000000e+000 0.000000e+000 -1.000000e+000
      outer loop
         vertex 1.210000e+004 5.300000e+003 0.000000e+000
         vertex 1.153005e+004 2.100000e+003 0.000000e+000
         vertex 1.128614e+004 4.820000e+003 0.000000e+000
      endloop
   endfacet
   facet normal 0.000000e+000 0.000000e+000 -1.000000e+000
      outer loop
         vertex 1.210000e+004 5.300000e+003 0.000000e+000
         vertex 1.210000e+004 -1.500000e+002 0.000000e+000
         vertex 1.154000e+004 2.000000e+003 0.000000e+000
      endloop
   endfacet
   facet normal 0.000000e+000 0.000000e+000 -1.000000e+000
      outer loop
         vertex 1.128614e+004 4.820000e+003 0.000000e+000
         vertex 4.584340e+003 4.820000e+003 0.000000e+000
         vertex 1.210000e+004 5.300000e+003 0.000000e+000
      endloop
   endfacet
   facet normal 0.000000e+000 0.000000e+000 -1.000000e+000
      outer loop
         vertex 6.895660e+003 1.000000e+003 0.000000e+000
         vertex 4.480000e+003 1.000000e+003 0.000000e+000
         vertex 4.584340e+003 1.100000e+003 0.000000e+000
      endloop
   endfacet
   facet normal 0.000000e+000 0.000000e+000 -1.000000e+000
      outer loop
         vertex 9.904340e+003 2.100000e+003 0.000000e+000
         vertex 6.995660e+003 2.000000e+003 0.000000e+000
         vertex 6.895660e+003 2.100000e+003 0.000000e+000
      endloop
   endfacet
   facet normal 0.000000e+000 0.000000e+000 -1.000000e+000
      outer loop
         vertex 1.153005e+004 2.100000e+003 0.000000e+000
         vertex 1.210000e+004 5.300000e+003 0.000000e+000
         vertex 1.154000e+004 2.000000e+003 0.000000e+000
      endloop
   endfacet
   facet normal 0.000000e+000 0.000000e+000 -1.000000e+000
      outer loop
         vertex 1.153005e+004 2.100000e+003 0.000000e+000
         vertex 1.154000e+004 2.000000e+003 0.000000e+000
         vertex 1.074000e+004 2.000000e+003 0.000000e+000
      endloop
   endfacet
   facet normal 0.000000e+000 0.000000e+000 -1.000000e+000
      outer loop
         vertex 1.800000e+002 4.820000e+003 0.000000e+000
         vertex -3.000000e+002 -1.500000e+002 0.000000e+000
         vertex -3.000000e+002 5.300000e+003 0.000000e+000
      endloop
   endfacet
   facet normal 0.000000e+000 0.000000e+000 -1.000000e+000
      outer loop
         vertex -3.000000e+002 5.300000e+003 0.000000e+000
         vertex 4.480000e+003 4.820000e+003 0.000000e+000
         vertex 1.800000e+002 4.820000e+003 0.000000e+000
      endloop
   endfacet
   facet normal 0.000000e+000 0.000000e+000 -1.000000e+000
      outer loop
         vertex 6.895660e+003 1.000000e+003 0.000000e+000
         vertex 4.584340e+003 1.100000e+003 0.000000e+000
         vertex 6.895660e+003 1.100000e+003 0.000000e+000
      endloop
   endfacet
   facet normal 0.000000e+000 0.000000e+000 -1.000000e+000
      outer loop
         vertex 1.210000e+004 -1.500000e+002 0.000000e+000
         vertex 1.085000e+004 -1.500000e+002 0.000000e+000
         vertex 1.154000e+004 -7.579123e-014 0.000000e+000
      endloop
   endfacet
   facet normal 0.000000e+000 0.000000e+000 -1.000000e+000
      outer loop
         vertex 7.004340e+003 8.200000e+002 0.000000e+000
         vertex 6.895660e+003 1.100000e+003 0.000000e+000
         vertex 6.995660e+003 2.000000e+003 0.000000e+000
      endloop
   endfacet
   facet normal 0.000000e+000 0.000000e+000 -1.000000e+000
      outer loop
         vertex 4.584340e+003 4.820000e+003 0.000000e+000
         vertex 4.480000e+003 4.820000e+003 0.000000e+000
         vertex -3.000000e+002 5.300000e+003 0.000000e+000
      endloop
   endfacet
   facet normal 0.000000e+000 -0.000000e+000 -1.000000e+000
      outer loop
         vertex -3.000000e+002 -1.500000e+002 0.000000e+000
         vertex 1.800000e+002 4.820000e+003 0.000000e+000
         vertex 1.800000e+002 1.498953e-028 0.000000e+000
      endloop
   endfacet
   facet normal 0.000000e+000 0.000000e+000 -1.000000e+000
      outer loop
         vertex 7.004340e+003 8.200000e+002 0.000000e+000
         vertex 6.895660e+003 1.000000e+003 0.000000e+000
         vertex 6.895660e+003 1.100000e+003 0.000000e+000
      endloop
   endfacet
   facet normal -9.950369e-002 0.000000e+000 9.950372e-001
      outer loop
         vertex 6.000000e+003 2.210000e+003 3.600000e+003
         vertex 6.000000e+003 2.530000e+003 3.600000e+003
         vertex 4.584340e+003 2.210000e+003 3.458434e+003
      endloop
   endfacet
   facet normal -9.950372e-002 0.000000e+000 9.950372e-001
      outer loop
         vertex 3.070000e+003 2.530000e+003 3.307000e+003
         vertex 3.070000e+003 3.918199e+003 3.307000e+003
         vertex 3.020000e+003 3.918199e+003 3.302000e+003
      endloop
   endfacet
   facet normal -9.950372e-002 0.000000e+000 9.950372e-001
      outer loop
         vertex 3.020000e+003 2.480000e+003 3.302000e+003
         vertex -2.273737e-013 2.480000e+003 3.000000e+003
         vertex -2.273737e-013 2.210000e+003 3.000000e+003
      endloop
   endfacet
   facet normal -9.950372e-002 0.000000e+000 9.950372e-001
      outer loop
         vertex -2.273737e-013 4.720000e+003 3.000000e+003
         vertex 6.000000e+003 4.720000e+003 3.600000e+003
         vertex 6.000000e+003 5.300000e+003 3.600000e+003
      endloop
   endfacet
   facet normal -9.950372e-002 0.000000e+000 9.950372e-001
      outer loop
         vertex -3.000000e+002 5.300000e+003 2.970000e+003
         vertex -3.000000e+002 -1.500000e+002 2.970000e+003
         vertex -2.273737e-013 2.480000e+003 3.000000e+003
      endloop
   endfacet
   facet normal -9.950372e-002 0.000000e+000 9.950372e-001
      outer loop
         vertex 6.000000e+003 3.000000e+001 3.600000e+003
         vertex -3.031649e-013 3.000000e+001 3.000000e+003
         vertex 6.000000e+003 -1.500000e+002 3.600000e+003
      endloop
   endfacet
   facet normal -9.950418e-002 0.000000e+000 9.950371e-001
      outer loop
         vertex 4.480000e+003 2.210000e+003 3.448000e+003
         vertex 4.480000e+003 1.000000e+003 3.448000e+003
         vertex 4.584340e+003 1.100000e+003 3.458434e+003
      endloop
   endfacet
   facet normal -9.950369e-002 0.000000e+000 9.950372e-001
      outer loop
         vertex 6.000000e+003 1.000000e+003 3.600000e+003
         vertex 6.000000e+003 1.100000e+003 3.600000e+003
         vertex 4.584340e+003 1.100000e+003 3.458434e+003
      endloop
   endfacet
   facet normal -9.950372e-002 1.518306e-007 9.950372e-001
      outer loop
         vertex 4.584340e+003 2.210000e+003 3.458434e+003
         vertex 6.000000e+003 2.530000e+003 3.600000e+003
         vertex 3.070000e+003 2.530000e+003 3.307000e+003
      endloop
   endfacet
   facet normal -9.950372e-002 0.000000e+000 9.950372e-001
      outer loop
         vertex -2.273737e-013 2.210000e+003 3.000000e+003
         vertex -2.273737e-013 2.480000e+003 3.000000e+003
         vertex -3.000000e+002 -1.500000e+002 2.970000e+003
      endloop
   endfacet
   facet normal -9.950372e-002 0.000000e+000 9.950372e-001
      outer loop
         vertex -3.000000e+002 5.300000e+003 2.970000e+003
         vertex -2.273737e-013 2.480000e+003 3.000000e+003
         vertex -2.273737e-013 4.720000e+003 3.000000e+003
      endloop
   endfacet
   facet normal -9.950372e-002 -4.858580e-007 9.950372e-001
      outer loop
         vertex 4.584340e+003 1.100000e+003 3.458434e+003
         vertex 4.480000e+003 1.000000e+003 3.448000e+003
         vertex 6.000000e+003 1.000000e+003 3.600000e+003
      endloop
   endfacet
   facet normal -9.950372e-002 3.962698e-017 9.950372e-001
      outer loop
         vertex -3.000000e+002 5.300000e+003 2.970000e+003
         vertex -2.273737e-013 4.720000e+003 3.000000e+003
         vertex 6.000000e+003 5.300000e+003 3.600000e+003
      endloop
   endfacet
   facet normal -9.950372e-002 0.000000e+000 9.950372e-001
      outer loop
         vertex 3.020000e+003 3.918199e+003 3.302000e+003
         vertex 3.020000e+003 2.480000e+003 3.302000e+003
         vertex 3.070000e+003 2.530000e+003 3.307000e+003
      endloop
   endfacet
   facet normal -9.950372e-002 3.459408e-018 9.950372e-001
      outer loop
         vertex -3.031649e-013 3.000000e+001 3.000000e+003
         vertex -2.273737e-013 2.210000e+003 3.000000e+003
         vertex -3.000000e+002 -1.500000e+002 2.970000e+003
      endloop
   endfacet
   facet normal -9.950418e-002 0.000000e+000 9.950371e-001
      outer loop
         vertex 4.584340e+003 1.100000e+003 3.458434e+003
         vertex 4.584340e+003 2.210000e+003 3.458434e+003
         vertex 4.480000e+003 2.210000e+003 3.448000e+003
      endloop
   endfacet
   facet normal -9.950372e-002 -1.532243e-016 9.950372e-001
      outer loop
         vertex 6.000000e+003 -1.500000e+002 3.600000e+003
         vertex -3.031649e-013 3.000000e+001 3.000000e+003
         vertex -3.000000e+002 -1.500000e+002 2.970000e+003
      endloop
   endfacet
   facet normal -9.950418e-002 -2.051759e-006 9.950371e-001
      outer loop
         vertex 4.480000e+003 2.210000e+003 3.448000e+003
         vertex 4.584340e+003 2.210000e+003 3.458434e+003
         vertex 3.070000e+003 2.530000e+003 3.307000e+003
      endloop
   endfacet
   facet normal -9.950372e-002 0.000000e+000 9.950372e-001
      outer loop
         vertex -2.273737e-013 2.210000e+003 3.000000e+003
         vertex 4.480000e+003 2.210000e+003 3.448000e+003
         vertex 3.020000e+003 2.480000e+003 3.302000e+003
      endloop
   endfacet
   facet normal -9.950372e-002 0.000000e+000 9.950372e-001
      outer loop
         vertex 4.480000e+003 2.210000e+003 3.448000e+003
         vertex 3.070000e+003 2.530000e+003 3.307000e+003
         vertex 3.020000e+003 2.480000e+003 3.302000e+003
      endloop
   endfacet
   facet normal 0.000000e+000 -0.000000e+000 1.000000e+000
      outer loop
         vertex 1.800000e+002 4.820000e+003 8.000000e+002
         vertex 4.480000e+003 4.820000e+003 8.000000e+002
         vertex 4.480000e+003 5.000000e+003 8.000000e+002
      endloop
   endfacet
   facet normal 0.000000e+000 0.000000e+000 1.000000e+000
      outer loop
         vertex 0.000000e+000 5.000000e+003 8.000000e+002
         vertex 0.000000e+000 3.280000e+003 8.000000e+002
         vertex 1.800000e+002 4.820000e+003 8.000000e+002
      endloop
   endfacet
   facet normal 0.000000e+000 0.000000e+000 1.000000e+000
      outer loop
         vertex -3.000000e+002 3.280000e+003 8.000000e+002
         vertex -3.000000e+002 1.730000e+003 8.000000e+002
         vertex 0.000000e+000 3.280000e+003 8.000000e+002
      endloop
   endfacet
   facet normal 0.000000e+000 0.000000e+000 1.000000e+000
      outer loop
         vertex 0.000000e+000 1.524239e-028 8.000000e+002
         vertex 1.800000e+002 0.000000e+000 8.000000e+002
         vertex 0.000000e+000 1.730000e+003 8.000000e+002
      endloop
   endfacet
   facet normal 0.000000e+000 -0.000000e+000 1.000000e+000
      outer loop
         vertex 0.000000e+000 5.000000e+003 8.000000e+002
         vertex 1.800000e+002 4.820000e+003 8.000000e+002
         vertex 4.480000e+003 5.000000e+003 8.000000e+002
      endloop
   endfacet
   facet normal 0.000000e+000 -0.000000e+000 1.000000e+000
      outer loop
         vertex -3.000000e+002 1.730000e+003 8.000000e+002
         vertex 0.000000e+000 1.730000e+003 8.000000e+002
         vertex 0.000000e+000 3.280000e+003 8.000000e+002
      endloop
   endfacet
   facet normal -0.000000e+000 0.000000e+000 1.000000e+000
      outer loop
         vertex 1.800000e+002 4.820000e+003 8.000000e+002
         vertex 0.000000e+000 3.280000e+003 8.000000e+002
         vertex 0.000000e+000 1.730000e+003 8.000000e+002
      endloop
   endfacet
   facet normal -0.000000e+000 0.000000e+000 1.000000e+000
      outer loop
         vertex 1.800000e+002 4.820000e+003 8.000000e+002
         vertex 0.000000e+000 1.730000e+003 8.000000e+002
         vertex 1.800000e+002 0.000000e+000 8.000000e+002
      endloop
   endfacet
   facet normal 1.000000e+000 0.000000e+000 0.000000e+000
      outer loop
         vertex 0.000000e+000 1.524239e-028 2.500000e+003
         vertex 0.000000e+000 1.524239e-028 8.000000e+002
         vertex 0.000000e+000 3.000000e+001 2.500000e+003
      endloop
   endfacet
   facet normal 1.000000e+000 0.000000e+000 0.000000e+000
      outer loop
         vertex 0.000000e+000 1.730000e+003 8.000000e+002
         vertex 0.000000e+000 1.730000e+003 1.760000e+003
         vertex 0.000000e+000 1.524239e-028 8.000000e+002
      endloop
   endfacet
   facet normal 1.000000e+000 0.000000e+000 0.000000e+000
      outer loop
         vertex 0.000000e+000 3.280000e+003 8.000000e+002
         vertex 0.000000e+000 5.000000e+003 8.000000e+002
         vertex 0.000000e+000 3.280000e+003 1.760000e+003
      endloop
   endfacet
   facet normal 1.000000e+000 -4.784321e-016 7.389644e-016
      outer loop
         vertex 1.421085e-013 4.720000e+003 2.500000e+003
         vertex -2.273737e-013 4.720000e+003 3.000000e+003
         vertex 0.000000e+000 3.280000e+003 1.760000e+003
      endloop
   endfacet
   facet normal 1.000000e+000 4.206413e-016 4.547474e-016
      outer loop
         vertex -2.273737e-013 2.480000e+003 3.000000e+003
         vertex 0.000000e+000 2.480000e+003 2.500000e+003
         vertex 0.000000e+000 3.280000e+003 1.760000e+003
      endloop
   endfacet
   facet normal 1.000000e+000 -3.476662e-017 4.547474e-016
      outer loop
         vertex 0.000000e+000 2.210000e+003 2.500000e+003
         vertex -2.273737e-013 2.210000e+003 3.000000e+003
         vertex -3.031649e-013 3.000000e+001 3.000000e+003
      endloop
   endfacet
   facet normal 1.000000e+000 0.000000e+000 0.000000e+000
      outer loop
         vertex 0.000000e+000 3.000000e+001 2.500000e+003
         vertex 0.000000e+000 1.524239e-028 8.000000e+002
         vertex 0.000000e+000 1.730000e+003 1.760000e+003
      endloop
   endfacet
   facet normal 1.000000e+000 -5.138001e-017 -9.205585e-017
      outer loop
         vertex 1.421085e-013 4.720000e+003 2.500000e+003
         vertex 0.000000e+000 3.280000e+003 1.760000e+003
         vertex 0.000000e+000 5.000000e+003 8.000000e+002
      endloop
   endfacet
   facet normal 1.000000e+000 0.000000e+000 0.000000e+000
      outer loop
         vertex 0.000000e+000 3.280000e+003 1.760000e+003
         vertex 0.000000e+000 2.480000e+003 2.500000e+003
         vertex 0.000000e+000 1.730000e+003 1.760000e+003
      endloop
   endfacet
   facet normal 1.000000e+000 5.075305e-016 -0.000000e+000
      outer loop
         vertex 1.421085e-013 4.720000e+003 2.500000e+003
         vertex 0.000000e+000 5.000000e+003 8.000000e+002
         vertex 0.000000e+000 5.000000e+003 2.500000e+003
      endloop
   endfacet
   facet normal 1.000000e+000 -0.000000e+000 1.833659e-016
      outer loop
         vertex -2.273737e-013 4.720000e+003 3.000000e+003
         vertex -2.273737e-013 2.480000e+003 3.000000e+003
         vertex 0.000000e+000 3.280000e+003 1.760000e+003
      endloop
   endfacet
   facet normal 1.000000e+000 -0.000000e+000 6.063298e-016
      outer loop
         vertex -3.031649e-013 3.000000e+001 3.000000e+003
         vertex 0.000000e+000 3.000000e+001 2.500000e+003
         vertex 0.000000e+000 2.210000e+003 2.500000e+003
      endloop
   endfacet
   facet normal 1.000000e+000 0.000000e+000 0.000000e+000
      outer loop
         vertex 0.000000e+000 1.730000e+003 1.760000e+003
         vertex 0.000000e+000 2.480000e+003 2.500000e+003
         vertex 0.000000e+000 2.210000e+003 2.500000e+003
      endloop
   endfacet
   facet normal 1.000000e+000 0.000000e+000 -0.000000e+000
      outer loop
         vertex 0.000000e+000 3.000000e+001 2.500000e+003
         vertex 0.000000e+000 1.730000e+003 1.760000e+003
         vertex 0.000000e+000 2.210000e+003 2.500000e+003
      endloop
   endfacet
   facet normal -1.000000e+000 0.000000e+000 0.000000e+000
      outer loop
         vertex -3.000000e+002 -1.500000e+002 0.000000e+000
         vertex -3.000000e+002 -1.500000e+002 2.970000e+003
         vertex -3.000000e+002 1.730000e+003 1.760000e+003
      endloop
   endfacet
   facet normal -1.000000e+000 0.000000e+000 0.000000e+000
      outer loop
         vertex -3.000000e+002 5.300000e+003 2.970000e+003
         vertex -3.000000e+002 5.300000e+003 0.000000e+000
         vertex -3.000000e+002 3.280000e+003 1.760000e+003
      endloop
   endfacet
   facet normal -1.000000e+000 0.000000e+000 0.000000e+000
      outer loop
         vertex -3.000000e+002 3.280000e+003 1.760000e+003
         vertex -3.000000e+002 1.730000e+003 1.760000e+003
         vertex -3.000000e+002 -1.500000e+002 2.970000e+003
      endloop
   endfacet
   facet normal -1.000000e+000 -0.000000e+000 0.000000e+000
      outer loop
         vertex -3.000000e+002 1.730000e+003 8.000000e+002
         vertex -3.000000e+002 3.280000e+003 8.000000e+002
         vertex -3.000000e+002 -1.500000e+002 0.000000e+000
      endloop
   endfacet
   facet normal -1.000000e+000 0.000000e+000 -0.000000e+000
      outer loop
         vertex -3.000000e+002 -1.500000e+002 0.000000e+000
         vertex -3.000000e+002 1.730000e+003 1.760000e+003
         vertex -3.000000e+002 1.730000e+003 8.000000e+002
      endloop
   endfacet
   facet normal -1.000000e+000 0.000000e+000 0.000000e+000
      outer loop
         vertex -3.000000e+002 3.280000e+003 1.760000e+003
         vertex -3.000000e+002 -1.500000e+002 2.970000e+003
         vertex -3.000000e+002 5.300000e+003 2.970000e+003
      endloop
   endfacet
   facet normal -1.000000e+000 0.000000e+000 0.000000e+000
      outer loop
         vertex -3.000000e+002 5.300000e+003 0.000000e+000
         vertex -3.000000e+002 -1.500000e+002 0.000000e+000
         vertex -3.000000e+002 3.280000e+003 8.000000e+002
      endloop
   endfacet
   facet normal -1.000000e+000 0.000000e+000 0.000000e+000
      outer loop
         vertex -3.000000e+002 3.280000e+003 1.760000e+003
         vertex -3.000000e+002 5.300000e+003 0.000000e+000
         vertex -3.000000e+002 3.280000e+003 8.000000e+002
      endloop
   endfacet
   facet normal 0.000000e+000 0.000000e+000 -1.000000e+000
      outer loop
         vertex 4.480000e+003 2.210000e+003 2.500000e+003
         vertex 0.000000e+000 2.210000e+003 2.500000e+003
         vertex 3.020000e+003 2.480000e+003 2.500000e+003
      endloop
   endfacet
   facet normal -0.000000e+000 0.000000e+000 -1.000000e+000
      outer loop
         vertex 0.000000e+000 2.480000e+003 2.500000e+003
         vertex 3.020000e+003 2.480000e+003 2.500000e+003
         vertex 0.000000e+000 2.210000e+003 2.500000e+003
      endloop
   endfacet
   facet normal 0.000000e+000 0.000000e+000 -1.000000e+000
      outer loop
         vertex 4.480000e+003 2.210000e+003 2.500000e+003
         vertex 3.020000e+003 2.480000e+003 2.500000e+003
         vertex 4.480000e+003 2.480000e+003 2.500000e+003
      endloop
   endfacet
   facet normal 0.000000e+000 -1.000000e+000 0.000000e+000
      outer loop
         vertex 4.480000e+003 2.210000e+003 3.448000e+003
         vertex -2.273737e-013 2.210000e+003 3.000000e+003
         vertex 4.480000e+003 2.210000e+003 2.500000e+003
      endloop
   endfacet
   facet normal 0.000000e+000 -1.000000e+000 0.000000e+000
      outer loop
         vertex 0.000000e+000 2.210000e+003 2.500000e+003
         vertex 4.480000e+003 2.210000e+003 2.500000e+003
         vertex -2.273737e-013 2.210000e+003 3.000000e+003
      endloop
   endfacet
   facet normal 0.000000e+000 1.000000e+000 0.000000e+000
      outer loop
         vertex -2.273737e-013 2.480000e+003 3.000000e+003
         vertex 3.020000e+003 2.480000e+003 2.500000e+003
         vertex 0.000000e+000 2.480000e+003 2.500000e+003
      endloop
   endfacet
   facet normal -0.000000e+000 1.000000e+000 0.000000e+000
      outer loop
         vertex 3.020000e+003 2.480000e+003 2.500000e+003
         vertex -2.273737e-013 2.480000e+003 3.000000e+003
         vertex 3.020000e+003 2.480000e+003 3.302000e+003
      endloop
   endfacet
   facet normal 0.000000e+000 -1.000000e+000 0.000000e+000
      outer loop
         vertex -3.000000e+002 3.280000e+003 1.760000e+003
         vertex -3.000000e+002 3.280000e+003 8.000000e+002
         vertex 0.000000e+000 3.280000e+003 8.000000e+002
      endloop
   endfacet
   facet normal 0.000000e+000 -1.000000e+000 0.000000e+000
      outer loop
         vertex 0.000000e+000 3.280000e+003 1.760000e+003
         vertex -3.000000e+002 3.280000e+003 1.760000e+003
         vertex 0.000000e+000 3.280000e+003 8.000000e+002
      endloop
   endfacet
   facet normal 0.000000e+000 1.000000e+000 -0.000000e+000
      outer loop
         vertex 0.000000e+000 1.730000e+003 1.760000e+003
         vertex 0.000000e+000 1.730000e+003 8.000000e+002
         vertex -3.000000e+002 1.730000e+003 8.000000e+002
      endloop
   endfacet
   facet normal 0.000000e+000 1.000000e+000 0.000000e+000
      outer loop
         vertex -3.000000e+002 1.730000e+003 1.760000e+003
         vertex 0.000000e+000 1.730000e+003 1.760000e+003
         vertex -3.000000e+002 1.730000e+003 8.000000e+002
      endloop
   endfacet
   facet normal 0.000000e+000 0.000000e+000 -1.000000e+000
      outer loop
         vertex 0.000000e+000 3.280000e+003 1.760000e+003
         vertex 0.000000e+000 1.730000e+003 1.760000e+003
         vertex -3.000000e+002 1.730000e+003 1.760000e+003
      endloop
   endfacet
   facet normal -0.000000e+000 0.000000e+000 -1.000000e+000
      outer loop
         vertex -3.000000e+002 3.280000e+003 1.760000e+003
         vertex 0.000000e+000 3.280000e+003 1.760000e+003
         vertex -3.000000e+002 1.730000e+003 1.760000e+003
      endloop
   endfacet
   facet normal -9.960034e-001 -8.931508e-002 -0.000000e+000
      outer loop
         vertex 1.153005e+004 2.100000e+003 0.000000e+000
         vertex 1.153005e+004 2.100000e+003 4.700000e+002
         vertex 1.132991e+004 4.331958e+003 4.700000e+002
      endloop
   endfacet
   facet normal -9.960035e-001 -8.931366e-002 -0.000000e+000
      outer loop
         vertex 1.132991e+004 4.331958e+003 4.700000e+002
         vertex 1.128614e+004 4.820000e+003 8.000000e+002
         vertex 1.128614e+004 4.820000e+003 0.000000e+000
      endloop
   endfacet
   facet normal -9.960035e-001 -8.931366e-002 0.000000e+000
      outer loop
         vertex 1.128614e+004 4.820000e+003 8.000000e+002
         vertex 1.132991e+004 4.331958e+003 4.700000e+002
         vertex 1.132991e+004 4.331958e+003 8.000000e+002
      endloop
   endfacet
   facet normal -9.960034e-001 -8.931483e-002 -1.222081e-006
      outer loop
         vertex 1.132991e+004 4.331958e+003 4.700000e+002
         vertex 1.128614e+004 4.820000e+003 0.000000e+000
         vertex 1.153005e+004 2.100000e+003 0.000000e+000
      endloop
   endfacet
   facet normal -0.000000e+000 -1.000000e+000 -0.000000e+000
      outer loop
         vertex 1.128614e+004 4.820000e+003 0.000000e+000
         vertex 1.128614e+004 4.820000e+003 8.000000e+002
         vertex 4.584340e+003 4.820000e+003 8.000000e+002
      endloop
   endfacet
   facet normal 0.000000e+000 -1.000000e+000 0.000000e+000
      outer loop
         vertex 4.584340e+003 4.820000e+003 0.000000e+000
         vertex 1.128614e+004 4.820000e+003 0.000000e+000
         vertex 4.584340e+003 4.820000e+003 8.000000e+002
      endloop
   endfacet
   facet normal 1.000000e+000 0.000000e+000 0.000000e+000
      outer loop
         vertex 4.584340e+003 4.820000e+003 0.000000e+000
         vertex 4.584340e+003 4.820000e+003 8.000000e+002
         vertex 4.584340e+003 2.430000e+003 1.800000e+003
      endloop
   endfacet
   facet normal 1.000000e+000 0.000000e+000 0.000000e+000
      outer loop
         vertex 4.584340e+003 5.000000e+003 8.000000e+002
         vertex 4.584340e+003 5.000000e+003 1.800000e+003
         vertex 4.584340e+003 4.820000e+003 8.000000e+002
      endloop
   endfacet
   facet normal 1.000000e+000 -0.000000e+000 0.000000e+000
      outer loop
         vertex 4.584340e+003 2.430000e+003 2.500000e+003
         vertex 4.584340e+003 2.210000e+003 2.500000e+003
         vertex 4.584340e+003 2.430000e+003 1.800000e+003
      endloop
   endfacet
   facet normal 1.000000e+000 0.000000e+000 0.000000e+000
      outer loop
         vertex 4.584340e+003 1.100000e+003 3.458434e+003
         vertex 4.584340e+003 1.100000e+003 0.000000e+000
         vertex 4.584340e+003 2.210000e+003 2.500000e+003
      endloop
   endfacet
   facet normal 1.000000e+000 0.000000e+000 0.000000e+000
      outer loop
         vertex 4.584340e+003 4.820000e+003 0.000000e+000
         vertex 4.584340e+003 2.430000e+003 1.800000e+003
         vertex 4.584340e+003 1.100000e+003 0.000000e+000
      endloop
   endfacet
   facet normal 1.000000e+000 0.000000e+000 0.000000e+000
      outer loop
         vertex 4.584340e+003 2.430000e+003 1.800000e+003
         vertex 4.584340e+003 2.210000e+003 2.500000e+003
         vertex 4.584340e+003 1.100000e+003 0.000000e+000
      endloop
   endfacet
   facet normal 1.000000e+000 -0.000000e+000 0.000000e+000
      outer loop
         vertex 4.584340e+003 5.000000e+003 1.800000e+003
         vertex 4.584340e+003 2.430000e+003 1.800000e+003
         vertex 4.584340e+003 4.820000e+003 8.000000e+002
      endloop
   endfacet
   facet normal 1.000000e+000 -0.000000e+000 0.000000e+000
      outer loop
         vertex 4.584340e+003 2.210000e+003 3.458434e+003
         vertex 4.584340e+003 1.100000e+003 3.458434e+003
         vertex 4.584340e+003 2.210000e+003 2.500000e+003
      endloop
   endfacet
   facet normal 0.000000e+000 1.000000e+000 0.000000e+000
      outer loop
         vertex 4.584340e+003 1.100000e+003 3.458434e+003
         vertex 6.000000e+003 1.100000e+003 3.600000e+003
         vertex 4.584340e+003 1.100000e+003 0.000000e+000
      endloop
   endfacet
   facet normal 0.000000e+000 1.000000e+000 -0.000000e+000
      outer loop
         vertex 6.895660e+003 1.100000e+003 3.511902e+003
         vertex 6.895660e+003 1.100000e+003 0.000000e+000
         vertex 6.000000e+003 1.100000e+003 3.600000e+003
      endloop
   endfacet
   facet normal 0.000000e+000 1.000000e+000 0.000000e+000
      outer loop
         vertex 6.000000e+003 1.100000e+003 3.600000e+003
         vertex 6.895660e+003 1.100000e+003 0.000000e+000
         vertex 4.584340e+003 1.100000e+003 0.000000e+000
      endloop
   endfacet
   facet normal -1.000000e+000 0.000000e+000 0.000000e+000
      outer loop
         vertex 6.895660e+003 1.100000e+003 0.000000e+000
         vertex 6.895660e+003 1.100000e+003 3.511902e+003
         vertex 6.895660e+003 2.100000e+003 3.511902e+003
      endloop
   endfacet
   facet normal -1.000000e+000 0.000000e+000 0.000000e+000
      outer loop
         vertex 6.895660e+003 2.100000e+003 0.000000e+000
         vertex 6.895660e+003 1.100000e+003 0.000000e+000
         vertex 6.895660e+003 2.100000e+003 3.511902e+003
      endloop
   endfacet
   facet normal 0.000000e+000 1.000000e+000 -0.000000e+000
      outer loop
         vertex 1.165000e+004 2.100000e+003 3.044259e+003
         vertex 1.165000e+004 2.100000e+003 2.081450e+003
         vertex 1.074000e+004 2.100000e+003 2.199892e+003
      endloop
   endfacet
   facet normal 0.000000e+000 1.000000e+000 -0.000000e+000
      outer loop
         vertex 1.200000e+004 2.100000e+003 2.081450e+003
         vertex 1.200000e+004 2.100000e+003 4.700000e+002
         vertex 1.165000e+004 2.100000e+003 2.081450e+003
      endloop
   endfacet
   facet normal 0.000000e+000 1.000000e+000 0.000000e+000
      outer loop
         vertex 1.153005e+004 2.100000e+003 0.000000e+000
         vertex 1.074000e+004 2.100000e+003 0.000000e+000
         vertex 1.153005e+004 2.100000e+003 4.700000e+002
      endloop
   endfacet
   facet normal 0.000000e+000 1.000000e+000 -0.000000e+000
      outer loop
         vertex 9.904340e+003 2.100000e+003 2.199892e+003
         vertex 9.904340e+003 2.100000e+003 0.000000e+000
         vertex 6.895660e+003 2.100000e+003 0.000000e+000
      endloop
   endfacet
   facet normal 0.000000e+000 1.000000e+000 0.000000e+000
      outer loop
         vertex 6.895660e+003 2.100000e+003 3.511902e+003
         vertex 1.165000e+004 2.100000e+003 3.044259e+003
         vertex 9.904340e+003 2.100000e+003 2.199892e+003
      endloop
   endfacet
   facet normal 0.000000e+000 1.000000e+000 0.000000e+000
      outer loop
         vertex 1.074000e+004 2.100000e+003 2.199892e+003
         vertex 1.165000e+004 2.100000e+003 2.081450e+003
         vertex 1.153005e+004 2.100000e+003 4.700000e+002
      endloop
   endfacet
   facet normal 0.000000e+000 1.000000e+000 0.000000e+000
      outer loop
         vertex 1.153005e+004 2.100000e+003 4.700000e+002
         vertex 1.074000e+004 2.100000e+003 0.000000e+000
         vertex 1.074000e+004 2.100000e+003 2.199892e+003
      endloop
   endfacet
   facet normal 0.000000e+000 1.000000e+000 0.000000e+000
      outer loop
         vertex 9.904340e+003 2.100000e+003 2.199892e+003
         vertex 1.165000e+004 2.100000e+003 3.044259e+003
         vertex 1.074000e+004 2.100000e+003 2.199892e+003
      endloop
   endfacet
   facet normal 0.000000e+000 1.000000e+000 0.000000e+000
      outer loop
         vertex 1.200000e+004 2.100000e+003 4.700000e+002
         vertex 1.153005e+004 2.100000e+003 4.700000e+002
         vertex 1.165000e+004 2.100000e+003 2.081450e+003
      endloop
   endfacet
   facet normal 0.000000e+000 1.000000e+000 0.000000e+000
      outer loop
         vertex 9.904340e+003 2.100000e+003 2.199892e+003
         vertex 6.895660e+003 2.100000e+003 0.000000e+000
         vertex 6.895660e+003 2.100000e+003 3.511902e+003
      endloop
   endfacet
   facet normal 1.000000e+000 0.000000e+000 0.000000e+000
      outer loop
         vertex 9.904340e+003 2.100000e+003 0.000000e+000
         vertex 9.904340e+003 2.100000e+003 2.199892e+003
         vertex 9.904340e+003 2.000000e+003 2.199892e+003
      endloop
   endfacet
   facet normal 1.000000e+000 0.000000e+000 0.000000e+000
      outer loop
         vertex 9.904340e+003 2.000000e+003 0.000000e+000
         vertex 9.904340e+003 2.100000e+003 0.000000e+000
         vertex 9.904340e+003 2.000000e+003 2.199892e+003
      endloop
   endfacet
   facet normal -0.000000e+000 -1.000000e+000 -0.000000e+000
      outer loop
         vertex 1.200000e+004 2.000000e+003 4.700000e+002
         vertex 1.200000e+004 2.000000e+003 2.081450e+003
         vertex 1.165000e+004 2.000000e+003 2.081450e+003
      endloop
   endfacet
   facet normal 0.000000e+000 -1.000000e+000 0.000000e+000
      outer loop
         vertex 1.165000e+004 2.000000e+003 3.044259e+003
         vertex 6.995660e+003 2.000000e+003 3.502066e+003
         vertex 9.904340e+003 2.000000e+003 2.199892e+003
      endloop
   endfacet
   facet normal 0.000000e+000 -1.000000e+000 0.000000e+000
      outer loop
         vertex 6.995660e+003 2.000000e+003 0.000000e+000
         vertex 9.904340e+003 2.000000e+003 0.000000e+000
         vertex 9.904340e+003 2.000000e+003 2.199892e+003
      endloop
   endfacet
   facet normal 0.000000e+000 -1.000000e+000 0.000000e+000
      outer loop
         vertex 1.074000e+004 2.000000e+003 2.199892e+003
         vertex 1.074000e+004 2.000000e+003 0.000000e+000
         vertex 1.154000e+004 2.000000e+003 4.700000e+002
      endloop
   endfacet
   facet normal 0.000000e+000 -1.000000e+000 -0.000000e+000
      outer loop
         vertex 1.154000e+004 2.000000e+003 0.000000e+000
         vertex 1.154000e+004 2.000000e+003 4.700000e+002
         vertex 1.074000e+004 2.000000e+003 0.000000e+000
      endloop
   endfacet
   facet normal 0.000000e+000 -1.000000e+000 0.000000e+000
      outer loop
         vertex 1.165000e+004 2.000000e+003 3.044259e+003
         vertex 9.904340e+003 2.000000e+003 2.199892e+003
         vertex 1.074000e+004 2.000000e+003 2.199892e+003
      endloop
   endfacet
   facet normal 0.000000e+000 -1.000000e+000 0.000000e+000
      outer loop
         vertex 1.074000e+004 2.000000e+003 2.199892e+003
         vertex 1.154000e+004 2.000000e+003 4.700000e+002
         vertex 1.165000e+004 2.000000e+003 2.081450e+003
      endloop
   endfacet
   facet normal 0.000000e+000 -1.000000e+000 0.000000e+000
      outer loop
         vertex 1.074000e+004 2.000000e+003 2.199892e+003
         vertex 1.165000e+004 2.000000e+003 2.081450e+003
         vertex 1.165000e+004 2.000000e+003 3.044259e+003
      endloop
   endfacet
   facet normal 0.000000e+000 -1.000000e+000 0.000000e+000
      outer loop
         vertex 6.995660e+003 2.000000e+003 3.502066e+003
         vertex 6.995660e+003 2.000000e+003 0.000000e+000
         vertex 9.904340e+003 2.000000e+003 2.199892e+003
      endloop
   endfacet
   facet normal 0.000000e+000 -1.000000e+000 -0.000000e+000
      outer loop
         vertex 1.200000e+004 2.000000e+003 4.700000e+002
         vertex 1.165000e+004 2.000000e+003 2.081450e+003
         vertex 1.154000e+004 2.000000e+003 4.700000e+002
      endloop
   endfacet
   facet normal 9.999729e-001 7.356296e-003 0.000000e+000
      outer loop
         vertex 6.995660e+003 2.000000e+003 0.000000e+000
         vertex 6.995660e+003 2.000000e+003 3.502066e+003
         vertex 7.004340e+003 8.200000e+002 2.199892e+003
      endloop
   endfacet
   facet normal 9.999729e-001 7.356160e-003 -0.000000e+000
      outer loop
         vertex 7.010152e+003 3.000000e+001 3.500640e+003
         vertex 7.010152e+003 3.000000e+001 2.500000e+003
         vertex 7.004340e+003 8.200000e+002 2.199892e+003
      endloop
   endfacet
   facet normal 9.999729e-001 7.356572e-003 4.180216e-018
      outer loop
         vertex 7.010373e+003 5.394021e-029 2.500000e+003
         vertex 7.010373e+003 1.705303e-013 2.199892e+003
         vertex 7.010152e+003 3.000000e+001 2.500000e+003
      endloop
   endfacet
   facet normal 9.999729e-001 7.356296e-003 0.000000e+000
      outer loop
         vertex 7.004340e+003 8.200000e+002 0.000000e+000
         vertex 6.995660e+003 2.000000e+003 0.000000e+000
         vertex 7.004340e+003 8.200000e+002 2.199892e+003
      endloop
   endfacet
   facet normal 9.999729e-001 7.356175e-003 3.968225e-008
      outer loop
         vertex 7.004340e+003 8.200000e+002 2.199892e+003
         vertex 7.010152e+003 3.000000e+001 2.500000e+003
         vertex 7.010373e+003 1.705303e-013 2.199892e+003
      endloop
   endfacet
   facet normal 9.999729e-001 7.356241e-003 4.952007e-008
      outer loop
         vertex 6.995660e+003 2.000000e+003 3.502066e+003
         vertex 7.010152e+003 3.000000e+001 3.500640e+003
         vertex 7.004340e+003 8.200000e+002 2.199892e+003
      endloop
   endfacet
   facet normal -0.000000e+000 -1.000000e+000 -0.000000e+000
      outer loop
         vertex 7.004340e+003 8.200000e+002 0.000000e+000
         vertex 7.004340e+003 8.200000e+002 2.199892e+003
         vertex 6.895660e+003 8.200000e+002 2.199892e+003
      endloop
   endfacet
   facet normal 0.000000e+000 -1.000000e+000 0.000000e+000
      outer loop
         vertex 6.895660e+003 8.200000e+002 0.000000e+000
         vertex 7.004340e+003 8.200000e+002 0.000000e+000
         vertex 6.895660e+003 8.200000e+002 2.199892e+003
      endloop
   endfacet
   facet normal -1.000000e+000 0.000000e+000 0.000000e+000
      outer loop
         vertex 6.895660e+003 3.000000e+001 2.500000e+003
         vertex 6.895660e+003 3.000000e+001 3.511902e+003
         vertex 6.895660e+003 1.000000e+003 3.511902e+003
      endloop
   endfacet
   facet normal -1.000000e+000 0.000000e+000 0.000000e+000
      outer loop
         vertex 6.895660e+003 1.000000e+003 0.000000e+000
         vertex 6.895660e+003 8.200000e+002 0.000000e+000
         vertex 6.895660e+003 8.200000e+002 2.199892e+003
      endloop
   endfacet
   facet normal -1.000000e+000 0.000000e+000 0.000000e+000
      outer loop
         vertex 6.895660e+003 9.192647e-014 2.199892e+003
         vertex 6.895660e+003 5.555172e-029 2.500000e+003
         vertex 6.895660e+003 3.000000e+001 2.500000e+003
      endloop
   endfacet
   facet normal -1.000000e+000 0.000000e+000 0.000000e+000
      outer loop
         vertex 6.895660e+003 1.000000e+003 0.000000e+000
         vertex 6.895660e+003 8.200000e+002 2.199892e+003
         vertex 6.895660e+003 1.000000e+003 3.511902e+003
      endloop
   endfacet
   facet normal -1.000000e+000 0.000000e+000 0.000000e+000
      outer loop
         vertex 6.895660e+003 8.200000e+002 2.199892e+003
         vertex 6.895660e+003 9.192647e-014 2.199892e+003
         vertex 6.895660e+003 3.000000e+001 2.500000e+003
      endloop
   endfacet
   facet normal -1.000000e+000 0.000000e+000 0.000000e+000
      outer loop
         vertex 6.895660e+003 1.000000e+003 3.511902e+003
         vertex 6.895660e+003 8.200000e+002 2.199892e+003
         vertex 6.895660e+003 3.000000e+001 2.500000e+003
      endloop
   endfacet
   facet normal -0.000000e+000 -1.000000e+000 -0.000000e+000
      outer loop
         vertex 6.895660e+003 1.000000e+003 0.000000e+000
         vertex 6.895660e+003 1.000000e+003 3.511902e+003
         vertex 6.000000e+003 1.000000e+003 3.600000e+003
      endloop
   endfacet
   facet normal 0.000000e+000 -1.000000e+000 0.000000e+000
      outer loop
         vertex 4.480000e+003 1.000000e+003 3.448000e+003
         vertex 4.480000e+003 1.000000e+003 0.000000e+000
         vertex 6.000000e+003 1.000000e+003 3.600000e+003
      endloop
   endfacet
   facet normal 0.000000e+000 -1.000000e+000 0.000000e+000
      outer loop
         vertex 6.000000e+003 1.000000e+003 3.600000e+003
         vertex 4.480000e+003 1.000000e+003 0.000000e+000
         vertex 6.895660e+003 1.000000e+003 0.000000e+000
      endloop
   endfacet
   facet normal -1.000000e+000 0.000000e+000 -0.000000e+000
      outer loop
         vertex 4.480000e+003 4.820000e+003 8.000000e+002
         vertex 4.480000e+003 5.000000e+003 1.800000e+003
         vertex 4.480000e+003 5.000000e+003 8.000000e+002
      endloop
   endfacet
   facet normal -1.000000e+000 -0.000000e+000 -0.000000e+000
      outer loop
         vertex 4.480000e+003 2.210000e+003 2.500000e+003
         vertex 4.480000e+003 2.480000e+003 2.500000e+003
         vertex 4.480000e+003 2.480000e+003 1.800000e+003
      endloop
   endfacet
   facet normal -1.000000e+000 0.000000e+000 0.000000e+000
      outer loop
         vertex 4.480000e+003 2.210000e+003 2.500000e+003
         vertex 4.480000e+003 1.000000e+003 3.448000e+003
         vertex 4.480000e+003 2.210000e+003 3.448000e+003
      endloop
   endfacet
   facet normal -1.000000e+000 -0.000000e+000 -0.000000e+000
      outer loop
         vertex 4.480000e+003 2.480000e+003 1.800000e+003
         vertex 4.480000e+003 4.820000e+003 8.000000e+002
         vertex 4.480000e+003 4.820000e+003 0.000000e+000
      endloop
   endfacet
   facet normal -1.000000e+000 0.000000e+000 -0.000000e+000
      outer loop
         vertex 4.480000e+003 1.000000e+003 0.000000e+000
         vertex 4.480000e+003 2.210000e+003 2.500000e+003
         vertex 4.480000e+003 2.480000e+003 1.800000e+003
      endloop
   endfacet
   facet normal -1.000000e+000 0.000000e+000 -0.000000e+000
      outer loop
         vertex 4.480000e+003 1.000000e+003 0.000000e+000
         vertex 4.480000e+003 2.480000e+003 1.800000e+003
         vertex 4.480000e+003 4.820000e+003 0.000000e+000
      endloop
   endfacet
   facet normal -1.000000e+000 0.000000e+000 0.000000e+000
      outer loop
         vertex 4.480000e+003 4.820000e+003 8.000000e+002
         vertex 4.480000e+003 2.480000e+003 1.800000e+003
         vertex 4.480000e+003 5.000000e+003 1.800000e+003
      endloop
   endfacet
   facet normal -1.000000e+000 0.000000e+000 0.000000e+000
      outer loop
         vertex 4.480000e+003 1.000000e+003 0.000000e+000
         vertex 4.480000e+003 1.000000e+003 3.448000e+003
         vertex 4.480000e+003 2.210000e+003 2.500000e+003
      endloop
   endfacet
   facet normal 0.000000e+000 -1.000000e+000 0.000000e+000
      outer loop
         vertex 4.480000e+003 4.820000e+003 8.000000e+002
         vertex 1.800000e+002 4.820000e+003 8.000000e+002
         vertex 4.480000e+003 4.820000e+003 0.000000e+000
      endloop
   endfacet
   facet normal 0.000000e+000 -1.000000e+000 0.000000e+000
      outer loop
         vertex 1.800000e+002 4.820000e+003 0.000000e+000
         vertex 4.480000e+003 4.820000e+003 0.000000e+000
         vertex 1.800000e+002 4.820000e+003 8.000000e+002
      endloop
   endfacet
   facet normal 1.000000e+000 0.000000e+000 -0.000000e+000
      outer loop
         vertex 1.800000e+002 1.498953e-028 0.000000e+000
         vertex 1.800000e+002 4.820000e+003 0.000000e+000
         vertex 1.800000e+002 4.820000e+003 8.000000e+002
      endloop
   endfacet
   facet normal 1.000000e+000 0.000000e+000 -0.000000e+000
      outer loop
         vertex 1.800000e+002 0.000000e+000 8.000000e+002
         vertex 1.800000e+002 1.498953e-028 0.000000e+000
         vertex 1.800000e+002 4.820000e+003 8.000000e+002
      endloop
   endfacet
   facet normal 2.412118e-032 1.000000e+000 -2.685133e-032
      outer loop
         vertex 1.165000e+004 -1.123863e-029 2.500000e+003
         vertex 1.165000e+004 -2.247727e-029 2.081450e+003
         vertex 1.085000e+004 0.000000e+000 2.199892e+003
      endloop
   endfacet
   facet normal -1.806209e-032 1.000000e+000 0.000000e+000
      outer loop
         vertex 1.200000e+004 -1.615553e-029 2.081450e+003
         vertex 1.200000e+004 -1.615553e-029 4.700000e+002
         vertex 1.165000e+004 -2.247727e-029 2.081450e+003
      endloop
   endfacet
   facet normal 1.098424e-016 1.000000e+000 -1.612579e-016
      outer loop
         vertex 1.154000e+004 -7.579123e-014 0.000000e+000
         vertex 1.085000e+004 0.000000e+000 0.000000e+000
         vertex 1.154000e+004 0.000000e+000 4.700000e+002
      endloop
   endfacet
   facet normal 5.901462e-017 1.000000e+000 -4.044404e-033
      outer loop
         vertex 9.900000e+003 8.897251e-030 2.199892e+003
         vertex 9.900000e+003 0.000000e+000 0.000000e+000
         vertex 7.010373e+003 1.705303e-013 2.199892e+003
      endloop
   endfacet
   facet normal -1.368837e-017 1.000000e+000 1.873691e-031
      outer loop
         vertex 1.800000e+002 1.498953e-028 0.000000e+000
         vertex 1.800000e+002 0.000000e+000 8.000000e+002
         vertex 6.895660e+003 9.192647e-014 2.199892e+003
      endloop
   endfacet
   facet normal 8.467997e-031 1.000000e+000 0.000000e+000
      outer loop
         vertex 0.000000e+000 1.524239e-028 8.000000e+002
         vertex 0.000000e+000 1.524239e-028 2.500000e+003
         vertex 1.800000e+002 0.000000e+000 8.000000e+002
      endloop
   endfacet
   facet normal -6.852219e-016 1.000000e+000 -9.775783e-016
      outer loop
         vertex 6.895660e+003 9.192647e-014 2.199892e+003
         vertex 7.010373e+003 1.705303e-013 2.199892e+003
         vertex 9.900000e+003 0.000000e+000 0.000000e+000
      endloop
   endfacet
   facet normal 1.404829e-032 1.000000e+000 -1.482340e-032
      outer loop
         vertex 7.010373e+003 5.394021e-029 2.500000e+003
         vertex 1.165000e+004 -1.123863e-029 2.500000e+003
         vertex 9.900000e+003 8.897251e-030 2.199892e+003
      endloop
   endfacet
   facet normal 2.985991e-032 1.000000e+000 1.191019e-032
      outer loop
         vertex 1.085000e+004 0.000000e+000 2.199892e+003
         vertex 1.165000e+004 -2.247727e-029 2.081450e+003
         vertex 1.154000e+004 0.000000e+000 4.700000e+002
      endloop
   endfacet
   facet normal 0.000000e+000 1.000000e+000 0.000000e+000
      outer loop
         vertex 1.154000e+004 0.000000e+000 4.700000e+002
         vertex 1.085000e+004 0.000000e+000 0.000000e+000
         vertex 1.085000e+004 0.000000e+000 2.199892e+003
      endloop
   endfacet
   facet normal -1.339278e-017 1.000000e+000 -1.418059e-018
      outer loop
         vertex 6.895660e+003 9.192647e-014 2.199892e+003
         vertex 1.800000e+002 0.000000e+000 8.000000e+002
         vertex 0.000000e+000 1.524239e-028 2.500000e+003
      endloop
   endfacet
   facet normal 5.901462e-017 1.000000e+000 5.682289e-016
      outer loop
         vertex 7.010373e+003 5.394021e-029 2.500000e+003
         vertex 9.900000e+003 8.897251e-030 2.199892e+003
         vertex 7.010373e+003 1.705303e-013 2.199892e+003
      endloop
   endfacet
   facet normal 3.512073e-032 1.000000e+000 1.155108e-032
      outer loop
         vertex 1.200000e+004 -1.615553e-029 4.700000e+002
         vertex 1.154000e+004 0.000000e+000 4.700000e+002
         vertex 1.165000e+004 -2.247727e-029 2.081450e+003
      endloop
   endfacet
   facet normal 1.542132e-032 1.000000e+000 -4.178682e-017
      outer loop
         vertex 9.900000e+003 0.000000e+000 0.000000e+000
         vertex 1.800000e+002 1.498953e-028 0.000000e+000
         vertex 6.895660e+003 9.192647e-014 2.199892e+003
      endloop
   endfacet
   facet normal 1.405235e-032 1.000000e+000 3.063109e-016
      outer loop
         vertex 6.895660e+003 5.555172e-029 2.500000e+003
         vertex 6.895660e+003 9.192647e-014 2.199892e+003
         vertex 0.000000e+000 1.524239e-028 2.500000e+003
      endloop
   endfacet
   facet normal 9.365527e-033 1.000000e+000 1.248286e-032
      outer loop
         vertex 1.085000e+004 0.000000e+000 2.199892e+003
         vertex 9.900000e+003 8.897251e-030 2.199892e+003
         vertex 1.165000e+004 -1.123863e-029 2.500000e+003
      endloop
   endfacet
   facet normal 1.000000e+000 0.000000e+000 0.000000e+000
      outer loop
         vertex 9.900000e+003 0.000000e+000 0.000000e+000
         vertex 9.900000e+003 8.897251e-030 2.199892e+003
         vertex 9.900000e+003 -1.500000e+002 2.199892e+003
      endloop
   endfacet
   facet normal 1.000000e+000 0.000000e+000 0.000000e+000
      outer loop
         vertex 9.900000e+003 -1.500000e+002 0.000000e+000
         vertex 9.900000e+003 0.000000e+000 0.000000e+000
         vertex 9.900000e+003 -1.500000e+002 2.199892e+003
      endloop
   endfacet
   facet normal 0.000000e+000 -1.000000e+000 -0.000000e+000
      outer loop
         vertex 1.210000e+004 -1.500000e+002 0.000000e+000
         vertex 1.210000e+004 -1.500000e+002 2.999996e+003
         vertex 1.085000e+004 -1.500000e+002 2.199892e+003
      endloop
   endfacet
   facet normal 0.000000e+000 -1.000000e+000 0.000000e+000
      outer loop
         vertex 6.000000e+003 -1.500000e+002 3.600000e+003
         vertex -3.000000e+002 -1.500000e+002 2.970000e+003
         vertex -3.000000e+002 -1.500000e+002 0.000000e+000
      endloop
   endfacet
   facet normal -0.000000e+000 -1.000000e+000 -0.000000e+000
      outer loop
         vertex 9.900000e+003 -1.500000e+002 0.000000e+000
         vertex 9.900000e+003 -1.500000e+002 2.199892e+003
         vertex 6.000000e+003 -1.500000e+002 3.600000e+003
      endloop
   endfacet
   facet normal 0.000000e+000 -1.000000e+000 0.000000e+000
      outer loop
         vertex 1.085000e+004 -1.500000e+002 2.199892e+003
         vertex 1.085000e+004 -1.500000e+002 0.000000e+000
         vertex 1.210000e+004 -1.500000e+002 0.000000e+000
      endloop
   endfacet
   facet normal 0.000000e+000 -1.000000e+000 0.000000e+000
      outer loop
         vertex 6.000000e+003 -1.500000e+002 3.600000e+003
         vertex -3.000000e+002 -1.500000e+002 0.000000e+000
         vertex 9.900000e+003 -1.500000e+002 0.000000e+000
      endloop
   endfacet
   facet normal 0.000000e+000 -1.000000e+000 0.000000e+000
      outer loop
         vertex 1.210000e+004 -1.500000e+002 2.999996e+003
         vertex 6.000000e+003 -1.500000e+002 3.600000e+003
         vertex 9.900000e+003 -1.500000e+002 2.199892e+003
      endloop
   endfacet
   facet normal 0.000000e+000 -1.000000e+000 0.000000e+000
      outer loop
         vertex 1.085000e+004 -1.500000e+002 2.199892e+003
         vertex 1.210000e+004 -1.500000e+002 2.999996e+003
         vertex 9.900000e+003 -1.500000e+002 2.199892e+003
      endloop
   endfacet
   facet normal 0.000000e+000 1.000000e+000 0.000000e+000
      outer loop
         vertex -3.000000e+002 5.300000e+003 2.970000e+003
         vertex 6.000000e+003 5.300000e+003 3.600000e+003
         vertex -3.000000e+002 5.300000e+003 0.000000e+000
      endloop
   endfacet
   facet normal 0.000000e+000 1.000000e+000 -0.000000e+000
      outer loop
         vertex 1.210000e+004 5.300000e+003 2.999996e+003
         vertex 1.210000e+004 5.300000e+003 0.000000e+000
         vertex 6.000000e+003 5.300000e+003 3.600000e+003
      endloop
   endfacet
   facet normal 0.000000e+000 1.000000e+000 0.000000e+000
      outer loop
         vertex 6.000000e+003 5.300000e+003 3.600000e+003
         vertex 1.210000e+004 5.300000e+003 0.000000e+000
         vertex -3.000000e+002 5.300000e+003 0.000000e+000
      endloop
   endfacet
   facet normal 1.000000e+000 0.000000e+000 0.000000e+000
      outer loop
         vertex 1.210000e+004 5.300000e+003 0.000000e+000
         vertex 1.210000e+004 5.300000e+003 2.999996e+003
         vertex 1.210000e+004 -1.500000e+002 2.999996e+003
      endloop
   endfacet
   facet normal 1.000000e+000 0.000000e+000 0.000000e+000
      outer loop
         vertex 1.210000e+004 -1.500000e+002 0.000000e+000
         vertex 1.210000e+004 5.300000e+003 0.000000e+000
         vertex 1.210000e+004 -1.500000e+002 2.999996e+003
      endloop
   endfacet
   facet normal -1.000000e+000 0.000000e+000 0.000000e+000
      outer loop
         vertex 1.085000e+004 -1.500000e+002 0.000000e+000
         vertex 1.085000e+004 -1.500000e+002 2.199892e+003
         vertex 1.085000e+004 0.000000e+000 2.199892e+003
      endloop
   endfacet
   facet normal -1.000000e+000 0.000000e+000 0.000000e+000
      outer loop
         vertex 1.085000e+004 0.000000e+000 0.000000e+000
         vertex 1.085000e+004 -1.500000e+002 0.000000e+000
         vertex 1.085000e+004 0.000000e+000 2.199892e+003
      endloop
   endfacet
   facet normal -1.000000e+000 -0.000000e+000 -0.000000e+000
      outer loop
         vertex 1.154000e+004 0.000000e+000 4.700000e+002
         vertex 1.154000e+004 2.000000e+003 4.700000e+002
         vertex 1.154000e+004 2.000000e+003 0.000000e+000
      endloop
   endfacet
   facet normal -1.000000e+000 0.000000e+000 -0.000000e+000
      outer loop
         vertex 1.154000e+004 -7.579123e-014 0.000000e+000
         vertex 1.154000e+004 0.000000e+000 4.700000e+002
         vertex 1.154000e+004 2.000000e+003 0.000000e+000
      endloop
   endfacet
   facet normal -1.000000e+000 0.000000e+000 0.000000e+000
      outer loop
         vertex 1.074000e+004 2.000000e+003 0.000000e+000
         vertex 1.074000e+004 2.000000e+003 2.199892e+003
         vertex 1.074000e+004 2.100000e+003 2.199892e+003
      endloop
   endfacet
   facet normal -1.000000e+000 0.000000e+000 0.000000e+000
      outer loop
         vertex 1.074000e+004 2.100000e+003 0.000000e+000
         vertex 1.074000e+004 2.000000e+003 0.000000e+000
         vertex 1.074000e+004 2.100000e+003 2.199892e+003
      endloop
   endfacet
   facet normal -0.000000e+000 1.000000e+000 0.000000e+000
      outer loop
         vertex 3.070000e+003 2.530000e+003 1.870000e+003
         vertex 3.070000e+003 2.530000e+003 3.307000e+003
         vertex 6.000000e+003 2.530000e+003 3.600000e+003
      endloop
   endfacet
   facet normal 0.000000e+000 1.000000e+000 0.000000e+000
      outer loop
         vertex 6.000000e+003 2.530000e+003 3.600000e+003
         vertex 6.614340e+003 2.530000e+003 3.539573e+003
         vertex 6.614340e+003 2.530000e+003 1.870000e+003
      endloop
   endfacet
   facet normal 0.000000e+000 1.000000e+000 0.000000e+000
      outer loop
         vertex 3.070000e+003 2.530000e+003 1.870000e+003
         vertex 6.000000e+003 2.530000e+003 3.600000e+003
         vertex 6.614340e+003 2.530000e+003 1.870000e+003
      endloop
   endfacet
   facet normal 1.000000e+000 0.000000e+000 0.000000e+000
      outer loop
         vertex 3.070000e+003 2.530000e+003 3.307000e+003
         vertex 3.070000e+003 2.530000e+003 1.870000e+003
         vertex 3.070000e+003 3.918199e+003 1.870000e+003
      endloop
   endfacet
   facet normal 1.000000e+000 0.000000e+000 -0.000000e+000
      outer loop
         vertex 3.070000e+003 2.530000e+003 3.307000e+003
         vertex 3.070000e+003 3.918199e+003 1.870000e+003
         vertex 3.070000e+003 3.918199e+003 3.307000e+003
      endloop
   endfacet
   facet normal 0.000000e+000 1.000000e+000 0.000000e+000
      outer loop
         vertex 3.070000e+003 3.918199e+003 1.870000e+003
         vertex 3.020000e+003 3.918199e+003 1.870000e+003
         vertex 3.020000e+003 3.918199e+003 3.302000e+003
      endloop
   endfacet
   facet normal -0.000000e+000 1.000000e+000 0.000000e+000
      outer loop
         vertex 3.070000e+003 3.918199e+003 1.870000e+003
         vertex 3.020000e+003 3.918199e+003 3.302000e+003
         vertex 3.070000e+003 3.918199e+003 3.307000e+003
      endloop
   endfacet
   facet normal -1.000000e+000 0.000000e+000 0.000000e+000
      outer loop
         vertex 3.020000e+003 3.918199e+003 3.302000e+003
         vertex 3.020000e+003 3.918199e+003 1.870000e+003
         vertex 3.020000e+003 2.480000e+003 2.500000e+003
      endloop
   endfacet
   facet normal -1.000000e+000 0.000000e+000 0.000000e+000
      outer loop
         vertex 3.020000e+003 5.000000e+003 1.870000e+003
         vertex 3.020000e+003 5.000000e+003 1.800000e+003
         vertex 3.020000e+003 3.918199e+003 1.870000e+003
      endloop
   endfacet
   facet normal -1.000000e+000 0.000000e+000 0.000000e+000
      outer loop
         vertex 3.020000e+003 2.480000e+003 2.500000e+003
         vertex 3.020000e+003 2.480000e+003 3.302000e+003
         vertex 3.020000e+003 3.918199e+003 3.302000e+003
      endloop
   endfacet
   facet normal -1.000000e+000 0.000000e+000 0.000000e+000
      outer loop
         vertex 3.020000e+003 3.918199e+003 1.870000e+003
         vertex 3.020000e+003 5.000000e+003 1.800000e+003
         vertex 3.020000e+003 2.480000e+003 1.800000e+003
      endloop
   endfacet
   facet normal -1.000000e+000 0.000000e+000 0.000000e+000
      outer loop
         vertex 3.020000e+003 2.480000e+003 1.800000e+003
         vertex 3.020000e+003 2.480000e+003 2.500000e+003
         vertex 3.020000e+003 3.918199e+003 1.870000e+003
      endloop
   endfacet
   facet normal 0.000000e+000 -1.000000e+000 0.000000e+000
      outer loop
         vertex 6.000000e+003 4.720000e+003 3.600000e+003
         vertex 1.421085e-013 4.720000e+003 2.500000e+003
         vertex 6.614340e+003 4.720000e+003 2.500000e+003
      endloop
   endfacet
   facet normal 0.000000e+000 -1.000000e+000 0.000000e+000
      outer loop
         vertex 1.421085e-013 4.720000e+003 2.500000e+003
         vertex 6.000000e+003 4.720000e+003 3.600000e+003
         vertex -2.273737e-013 4.720000e+003 3.000000e+003
      endloop
   endfacet
   facet normal 0.000000e+000 -1.000000e+000 0.000000e+000
      outer loop
         vertex 6.614340e+003 4.720000e+003 3.539573e+003
         vertex 6.000000e+003 4.720000e+003 3.600000e+003
         vertex 6.614340e+003 4.720000e+003 2.500000e+003
      endloop
   endfacet
   facet normal 9.788880e-002 0.000000e+000 9.951974e-001
      outer loop
         vertex 6.614340e+003 2.530000e+003 3.539573e+003
         vertex 6.000000e+003 2.530000e+003 3.600000e+003
         vertex 6.000000e+003 2.210000e+003 3.600000e+003
      endloop
   endfacet
   facet normal 9.788915e-002 -0.000000e+000 9.951973e-001
      outer loop
         vertex 1.165000e+004 2.210000e+003 3.044259e+003
         vertex 1.165000e+004 2.100000e+003 3.044259e+003
         vertex 1.210000e+004 -1.500000e+002 2.999996e+003
      endloop
   endfacet
   facet normal 9.788701e-002 -0.000000e+000 9.951975e-001
      outer loop
         vertex 6.895660e+003 2.100000e+003 3.511902e+003
         vertex 6.895660e+003 1.100000e+003 3.511902e+003
         vertex 6.995660e+003 2.000000e+003 3.502066e+003
      endloop
   endfacet
   facet normal 9.788906e-002 -0.000000e+000 9.951973e-001
      outer loop
         vertex 6.000000e+003 1.100000e+003 3.600000e+003
         vertex 6.000000e+003 1.000000e+003 3.600000e+003
         vertex 6.895660e+003 1.000000e+003 3.511902e+003
      endloop
   endfacet
   facet normal 9.788906e-002 0.000000e+000 9.951973e-001
      outer loop
         vertex 6.895660e+003 3.000000e+001 3.511902e+003
         vertex 6.000000e+003 3.000000e+001 3.600000e+003
         vertex 6.000000e+003 -1.500000e+002 3.600000e+003
      endloop
   endfacet
   facet normal 9.788915e-002 0.000000e+000 9.951973e-001
      outer loop
         vertex 1.210000e+004 -1.500000e+002 2.999996e+003
         vertex 1.210000e+004 5.300000e+003 2.999996e+003
         vertex 1.165000e+004 2.480000e+003 3.044259e+003
      endloop
   endfacet
   facet normal 9.788880e-002 -0.000000e+000 9.951974e-001
      outer loop
         vertex 6.000000e+003 5.300000e+003 3.600000e+003
         vertex 6.000000e+003 4.720000e+003 3.600000e+003
         vertex 6.614340e+003 4.720000e+003 3.539573e+003
      endloop
   endfacet
   facet normal 9.788915e-002 -0.000000e+000 9.951973e-001
      outer loop
         vertex 1.165000e+004 2.000000e+003 3.044259e+003
         vertex 1.165000e+004 3.000000e+001 3.044259e+003
         vertex 1.210000e+004 -1.500000e+002 2.999996e+003
      endloop
   endfacet
   facet normal 9.788745e-002 -4.451708e-008 9.951975e-001
      outer loop
         vertex 7.010152e+003 3.000000e+001 3.500640e+003
         vertex 6.995660e+003 2.000000e+003 3.502066e+003
         vertex 6.895660e+003 1.000000e+003 3.511902e+003
      endloop
   endfacet
   facet normal 9.788941e-002 0.000000e+000 9.951973e-001
      outer loop
         vertex 6.714340e+003 2.480000e+003 3.529737e+003
         vertex 6.714340e+003 4.720000e+003 3.529737e+003
         vertex 6.614340e+003 2.530000e+003 3.539573e+003
      endloop
   endfacet
   facet normal 9.788915e-002 -0.000000e+000 9.951973e-001
      outer loop
         vertex 1.165000e+004 4.720000e+003 3.044259e+003
         vertex 1.165000e+004 2.480000e+003 3.044259e+003
         vertex 1.210000e+004 5.300000e+003 2.999996e+003
      endloop
   endfacet
   facet normal 9.788911e-002 -6.106925e-007 9.951973e-001
      outer loop
         vertex 6.614340e+003 2.530000e+003 3.539573e+003
         vertex 6.000000e+003 2.210000e+003 3.600000e+003
         vertex 6.714340e+003 2.480000e+003 3.529737e+003
      endloop
   endfacet
   facet normal 9.788915e-002 0.000000e+000 9.951973e-001
      outer loop
         vertex 1.210000e+004 -1.500000e+002 2.999996e+003
         vertex 1.165000e+004 2.100000e+003 3.044259e+003
         vertex 1.165000e+004 2.000000e+003 3.044259e+003
      endloop
   endfacet
   facet normal 9.788906e-002 -0.000000e+000 9.951973e-001
      outer loop
         vertex 6.000000e+003 1.100000e+003 3.600000e+003
         vertex 6.895660e+003 1.000000e+003 3.511902e+003
         vertex 6.895660e+003 1.100000e+003 3.511902e+003
      endloop
   endfacet
   facet normal 9.788941e-002 6.603588e-007 9.951973e-001
      outer loop
         vertex 6.000000e+003 5.300000e+003 3.600000e+003
         vertex 6.614340e+003 4.720000e+003 3.539573e+003
         vertex 6.714340e+003 4.720000e+003 3.529737e+003
      endloop
   endfacet
   facet normal 9.788782e-002 0.000000e+000 9.951975e-001
      outer loop
         vertex 7.010152e+003 3.000000e+001 3.500640e+003
         vertex 6.895660e+003 1.000000e+003 3.511902e+003
         vertex 6.895660e+003 3.000000e+001 3.511902e+003
      endloop
   endfacet
   facet normal 9.788893e-002 1.695621e-007 9.951973e-001
      outer loop
         vertex 1.165000e+004 4.720000e+003 3.044259e+003
         vertex 1.210000e+004 5.300000e+003 2.999996e+003
         vertex 6.714340e+003 4.720000e+003 3.529737e+003
      endloop
   endfacet
   facet normal 9.788894e-002 7.168078e-008 9.951973e-001
      outer loop
         vertex 6.000000e+003 5.300000e+003 3.600000e+003
         vertex 6.714340e+003 4.720000e+003 3.529737e+003
         vertex 1.210000e+004 5.300000e+003 2.999996e+003
      endloop
   endfacet
   facet normal 9.788892e-002 -1.101501e-007 9.951973e-001
      outer loop
         vertex 6.000000e+003 2.210000e+003 3.600000e+003
         vertex 1.165000e+004 2.210000e+003 3.044259e+003
         vertex 6.714340e+003 2.480000e+003 3.529737e+003
      endloop
   endfacet
   facet normal 9.788894e-002 -1.267022e-007 9.951973e-001
      outer loop
         vertex 6.000000e+003 -1.500000e+002 3.600000e+003
         vertex 1.210000e+004 -1.500000e+002 2.999996e+003
         vertex 7.010152e+003 3.000000e+001 3.500640e+003
      endloop
   endfacet
   facet normal 9.788893e-002 -5.581594e-007 9.951973e-001
      outer loop
         vertex 1.165000e+004 3.000000e+001 3.044259e+003
         vertex 7.010152e+003 3.000000e+001 3.500640e+003
         vertex 1.210000e+004 -1.500000e+002 2.999996e+003
      endloop
   endfacet
   facet normal 9.788893e-002 0.000000e+000 9.951973e-001
      outer loop
         vertex 1.165000e+004 2.480000e+003 3.044259e+003
         vertex 6.714340e+003 2.480000e+003 3.529737e+003
         vertex 1.165000e+004 2.210000e+003 3.044259e+003
      endloop
   endfacet
   facet normal 9.788782e-002 6.211344e-006 9.951975e-001
      outer loop
         vertex 6.895660e+003 3.000000e+001 3.511902e+003
         vertex 6.000000e+003 -1.500000e+002 3.600000e+003
         vertex 7.010152e+003 3.000000e+001 3.500640e+003
      endloop
   endfacet
   facet normal 9.788701e-002 0.000000e+000 9.951975e-001
      outer loop
         vertex 6.895660e+003 1.000000e+003 3.511902e+003
         vertex 6.995660e+003 2.000000e+003 3.502066e+003
         vertex 6.895660e+003 1.100000e+003 3.511902e+003
      endloop
   endfacet
   facet normal 9.788941e-002 0.000000e+000 9.951973e-001
      outer loop
         vertex 6.714340e+003 4.720000e+003 3.529737e+003
         vertex 6.614340e+003 4.720000e+003 3.539573e+003
         vertex 6.614340e+003 2.530000e+003 3.539573e+003
      endloop
   endfacet
   facet normal 9.788890e-002 1.909623e-006 9.951973e-001
      outer loop
         vertex 1.165000e+004 2.100000e+003 3.044259e+003
         vertex 6.895660e+003 2.100000e+003 3.511902e+003
         vertex 6.995660e+003 2.000000e+003 3.502066e+003
      endloop
   endfacet
   facet normal 9.788915e-002 0.000000e+000 9.951973e-001
      outer loop
         vertex 1.165000e+004 2.210000e+003 3.044259e+003
         vertex 1.210000e+004 -1.500000e+002 2.999996e+003
         vertex 1.165000e+004 2.480000e+003 3.044259e+003
      endloop
   endfacet
   facet normal 9.788894e-002 0.000000e+000 9.951973e-001
      outer loop
         vertex 1.165000e+004 2.100000e+003 3.044259e+003
         vertex 6.995660e+003 2.000000e+003 3.502066e+003
         vertex 1.165000e+004 2.000000e+003 3.044259e+003
      endloop
   endfacet
   facet normal 0.000000e+000 1.000000e+000 0.000000e+000
      outer loop
         vertex 6.895660e+003 3.000000e+001 2.500000e+003
         vertex 6.000000e+003 3.000000e+001 3.600000e+003
         vertex 6.895660e+003 3.000000e+001 3.511902e+003
      endloop
   endfacet
   facet normal 0.000000e+000 1.000000e+000 -0.000000e+000
      outer loop
         vertex 6.000000e+003 3.000000e+001 3.600000e+003
         vertex 0.000000e+000 3.000000e+001 2.500000e+003
         vertex -3.031649e-013 3.000000e+001 3.000000e+003
      endloop
   endfacet
   facet normal 0.000000e+000 1.000000e+000 0.000000e+000
      outer loop
         vertex 6.895660e+003 3.000000e+001 2.500000e+003
         vertex 0.000000e+000 3.000000e+001 2.500000e+003
         vertex 6.000000e+003 3.000000e+001 3.600000e+003
      endloop
   endfacet
   facet normal 0.000000e+000 -1.000000e+000 0.000000e+000
      outer loop
         vertex 4.584340e+003 2.210000e+003 2.500000e+003
         vertex 1.165000e+004 2.210000e+003 2.500000e+003
         vertex 6.000000e+003 2.210000e+003 3.600000e+003
      endloop
   endfacet
   facet normal 0.000000e+000 -1.000000e+000 0.000000e+000
      outer loop
         vertex 1.165000e+004 2.210000e+003 3.044259e+003
         vertex 6.000000e+003 2.210000e+003 3.600000e+003
         vertex 1.165000e+004 2.210000e+003 2.500000e+003
      endloop
   endfacet
   facet normal 0.000000e+000 -1.000000e+000 0.000000e+000
      outer loop
         vertex 4.584340e+003 2.210000e+003 2.500000e+003
         vertex 6.000000e+003 2.210000e+003 3.600000e+003
         vertex 4.584340e+003 2.210000e+003 3.458434e+003
      endloop
   endfacet
   facet normal 0.000000e+000 -1.000000e+000 0.000000e+000
      outer loop
         vertex 3.020000e+003 5.000000e+003 1.800000e+003
         vertex 0.000000e+000 5.000000e+003 2.500000e+003
         vertex 0.000000e+000 5.000000e+003 8.000000e+002
      endloop
   endfacet
   facet normal 0.000000e+000 -1.000000e+000 0.000000e+000
      outer loop
         vertex 3.020000e+003 5.000000e+003 1.870000e+003
         vertex 6.614340e+003 5.000000e+003 1.870000e+003
         vertex 6.614340e+003 5.000000e+003 2.500000e+003
      endloop
   endfacet
   facet normal -0.000000e+000 -1.000000e+000 -0.000000e+000
      outer loop
         vertex 4.480000e+003 5.000000e+003 8.000000e+002
         vertex 4.480000e+003 5.000000e+003 1.800000e+003
         vertex 3.020000e+003 5.000000e+003 1.800000e+003
      endloop
   endfacet
   facet normal 0.000000e+000 -1.000000e+000 -0.000000e+000
      outer loop
         vertex 4.480000e+003 5.000000e+003 8.000000e+002
         vertex 3.020000e+003 5.000000e+003 1.800000e+003
         vertex 0.000000e+000 5.000000e+003 8.000000e+002
      endloop
   endfacet
   facet normal -0.000000e+000 -1.000000e+000 0.000000e+000
      outer loop
         vertex 3.020000e+003 5.000000e+003 1.870000e+003
         vertex 6.614340e+003 5.000000e+003 2.500000e+003
         vertex 0.000000e+000 5.000000e+003 2.500000e+003
      endloop
   endfacet
   facet normal 0.000000e+000 -1.000000e+000 0.000000e+000
      outer loop
         vertex 3.020000e+003 5.000000e+003 1.870000e+003
         vertex 0.000000e+000 5.000000e+003 2.500000e+003
         vertex 3.020000e+003 5.000000e+003 1.800000e+003
      endloop
   endfacet
   facet normal 0.000000e+000 0.000000e+000 -1.000000e+000
      outer loop
         vertex 1.421085e-013 4.720000e+003 2.500000e+003
         vertex 0.000000e+000 5.000000e+003 2.500000e+003
         vertex 6.614340e+003 5.000000e+003 2.500000e+003
      endloop
   endfacet
   facet normal 0.000000e+000 0.000000e+000 -1.000000e+000
      outer loop
         vertex 6.614340e+003 4.720000e+003 2.500000e+003
         vertex 1.421085e-013 4.720000e+003 2.500000e+003
         vertex 6.614340e+003 5.000000e+003 2.500000e+003
      endloop
   endfacet
   facet normal -0.000000e+000 0.000000e+000 -1.000000e+000
      outer loop
         vertex 0.000000e+000 3.000000e+001 2.500000e+003
         vertex 6.895660e+003 3.000000e+001 2.500000e+003
         vertex 0.000000e+000 1.524239e-028 2.500000e+003
      endloop
   endfacet
   facet normal 0.000000e+000 0.000000e+000 -1.000000e+000
      outer loop
         vertex 6.895660e+003 5.555172e-029 2.500000e+003
         vertex 0.000000e+000 1.524239e-028 2.500000e+003
         vertex 6.895660e+003 3.000000e+001 2.500000e+003
      endloop
   endfacet
   facet normal 0.000000e+000 -1.000000e+000 0.000000e+000
      outer loop
         vertex 3.020000e+003 2.480000e+003 1.800000e+003
         vertex 4.480000e+003 2.480000e+003 1.800000e+003
         vertex 3.020000e+003 2.480000e+003 2.500000e+003
      endloop
   endfacet
   facet normal 0.000000e+000 -1.000000e+000 0.000000e+000
      outer loop
         vertex 4.480000e+003 2.480000e+003 2.500000e+003
         vertex 3.020000e+003 2.480000e+003 2.500000e+003
         vertex 4.480000e+003 2.480000e+003 1.800000e+003
      endloop
   endfacet
   facet normal 0.000000e+000 -1.000000e+000 0.000000e+000
      outer loop
         vertex 1.200000e+004 4.331958e+003 8.000000e+002
         vertex 1.132991e+004 4.331958e+003 8.000000e+002
         vertex 1.132991e+004 4.331958e+003 4.700000e+002
      endloop
   endfacet
   facet normal 0.000000e+000 -1.000000e+000 -0.000000e+000
      outer loop
         vertex 1.200000e+004 4.331958e+003 4.700000e+002
         vertex 1.200000e+004 4.331958e+003 8.000000e+002
         vertex 1.132991e+004 4.331958e+003 4.700000e+002
      endloop
   endfacet
   facet normal -0.000000e+000 0.000000e+000 1.000000e+000
      outer loop
         vertex 1.200000e+004 4.670000e+003 8.000000e+002
         vertex 1.162000e+004 4.670000e+003 8.000000e+002
         vertex 1.200000e+004 4.331958e+003 8.000000e+002
      endloop
   endfacet
   facet normal -0.000000e+000 0.000000e+000 1.000000e+000
      outer loop
         vertex 1.162000e+004 5.000000e+003 8.000000e+002
         vertex 4.584340e+003 5.000000e+003 8.000000e+002
         vertex 1.128614e+004 4.820000e+003 8.000000e+002
      endloop
   endfacet
   facet normal 0.000000e+000 0.000000e+000 1.000000e+000
      outer loop
         vertex 4.584340e+003 4.820000e+003 8.000000e+002
         vertex 1.128614e+004 4.820000e+003 8.000000e+002
         vertex 4.584340e+003 5.000000e+003 8.000000e+002
      endloop
   endfacet
   facet normal 0.000000e+000 0.000000e+000 1.000000e+000
      outer loop
         vertex 1.200000e+004 4.331958e+003 8.000000e+002
         vertex 1.162000e+004 4.670000e+003 8.000000e+002
         vertex 1.132991e+004 4.331958e+003 8.000000e+002
      endloop
   endfacet
   facet normal 0.000000e+000 0.000000e+000 1.000000e+000
      outer loop
         vertex 1.162000e+004 4.670000e+003 8.000000e+002
         vertex 1.162000e+004 5.000000e+003 8.000000e+002
         vertex 1.128614e+004 4.820000e+003 8.000000e+002
      endloop
   endfacet
   facet normal 0.000000e+000 0.000000e+000 1.000000e+000
      outer loop
         vertex 1.132991e+004 4.331958e+003 8.000000e+002
         vertex 1.162000e+004 4.670000e+003 8.000000e+002
         vertex 1.128614e+004 4.820000e+003 8.000000e+002
      endloop
   endfacet
   facet normal 0.000000e+000 0.000000e+000 1.000000e+000
      outer loop
         vertex 1.200000e+004 2.100000e+003 4.700000e+002
         vertex 1.200000e+004 4.331958e+003 4.700000e+002
         vertex 1.153005e+004 2.100000e+003 4.700000e+002
      endloop
   endfacet
   facet normal 0.000000e+000 -0.000000e+000 1.000000e+000
      outer loop
         vertex 1.132991e+004 4.331958e+003 4.700000e+002
         vertex 1.153005e+004 2.100000e+003 4.700000e+002
         vertex 1.200000e+004 4.331958e+003 4.700000e+002
      endloop
   endfacet
   facet normal 0.000000e+000 -1.000000e+000 0.000000e+000
      outer loop
         vertex 6.714340e+003 5.000000e+003 1.800000e+003
         vertex 4.584340e+003 5.000000e+003 8.000000e+002
         vertex 1.162000e+004 5.000000e+003 8.000000e+002
      endloop
   endfacet
   facet normal -0.000000e+000 -1.000000e+000 0.000000e+000
      outer loop
         vertex 4.584340e+003 5.000000e+003 8.000000e+002
         vertex 6.714340e+003 5.000000e+003 1.800000e+003
         vertex 4.584340e+003 5.000000e+003 1.800000e+003
      endloop
   endfacet
   facet normal 0.000000e+000 -1.000000e+000 0.000000e+000
      outer loop
         vertex 6.714340e+003 5.000000e+003 1.800000e+003
         vertex 1.162000e+004 5.000000e+003 8.000000e+002
         vertex 1.162000e+004 5.000000e+003 2.500000e+003
      endloop
   endfacet
   facet normal 0.000000e+000 -1.000000e+000 0.000000e+000
      outer loop
         vertex 1.162000e+004 5.000000e+003 2.500000e+003
         vertex 6.714340e+003 5.000000e+003 2.500000e+003
         vertex 6.714340e+003 5.000000e+003 1.800000e+003
      endloop
   endfacet
   facet normal 0.000000e+000 0.000000e+000 -1.000000e+000
      outer loop
         vertex 4.584340e+003 2.430000e+003 1.800000e+003
         vertex 4.584340e+003 5.000000e+003 1.800000e+003
         vertex 6.714340e+003 5.000000e+003 1.800000e+003
      endloop
   endfacet
   facet normal 0.000000e+000 -0.000000e+000 -1.000000e+000
      outer loop
         vertex 4.584340e+003 2.430000e+003 1.800000e+003
         vertex 6.714340e+003 5.000000e+003 1.800000e+003
         vertex 6.714340e+003 2.430000e+003 1.800000e+003
      endloop
   endfacet
   facet normal 0.000000e+000 -1.000000e+000 0.000000e+000
      outer loop
         vertex 4.584340e+003 2.430000e+003 2.500000e+003
         vertex 4.584340e+003 2.430000e+003 1.800000e+003
         vertex 6.714340e+003 2.430000e+003 2.500000e+003
      endloop
   endfacet
   facet normal 0.000000e+000 -1.000000e+000 -0.000000e+000
      outer loop
         vertex 6.714340e+003 2.430000e+003 1.800000e+003
         vertex 6.714340e+003 2.430000e+003 2.500000e+003
         vertex 4.584340e+003 2.430000e+003 1.800000e+003
      endloop
   endfacet
   facet normal -0.000000e+000 0.000000e+000 -1.000000e+000
      outer loop
         vertex 6.714340e+003 2.480000e+003 2.500000e+003
         vertex 1.165000e+004 2.480000e+003 2.500000e+003
         vertex 6.714340e+003 2.430000e+003 2.500000e+003
      endloop
   endfacet
   facet normal 0.000000e+000 0.000000e+000 -1.000000e+000
      outer loop
         vertex 1.165000e+004 2.210000e+003 2.500000e+003
         vertex 4.584340e+003 2.210000e+003 2.500000e+003
         vertex 6.714340e+003 2.430000e+003 2.500000e+003
      endloop
   endfacet
   facet normal -0.000000e+000 0.000000e+000 -1.000000e+000
      outer loop
         vertex 4.584340e+003 2.430000e+003 2.500000e+003
         vertex 6.714340e+003 2.430000e+003 2.500000e+003
         vertex 4.584340e+003 2.210000e+003 2.500000e+003
      endloop
   endfacet
   facet normal 0.000000e+000 0.000000e+000 -1.000000e+000
      outer loop
         vertex 1.165000e+004 2.480000e+003 2.500000e+003
         vertex 1.165000e+004 2.210000e+003 2.500000e+003
         vertex 6.714340e+003 2.430000e+003 2.500000e+003
      endloop
   endfacet
   facet normal -0.000000e+000 -0.000000e+000 -1.000000e+000
      outer loop
         vertex 1.165000e+004 4.670000e+003 2.081450e+003
         vertex 1.200000e+004 4.670000e+003 2.081450e+003
         vertex 1.200000e+004 2.100000e+003 2.081450e+003
      endloop
   endfacet
   facet normal 0.000000e+000 0.000000e+000 -1.000000e+000
      outer loop
         vertex 1.165000e+004 2.100000e+003 2.081450e+003
         vertex 1.165000e+004 4.670000e+003 2.081450e+003
         vertex 1.200000e+004 2.100000e+003 2.081450e+003
      endloop
   endfacet
   facet normal -1.000000e+000 0.000000e+000 0.000000e+000
      outer loop
         vertex 1.200000e+004 2.100000e+003 4.700000e+002
         vertex 1.200000e+004 2.100000e+003 2.081450e+003
         vertex 1.200000e+004 4.331958e+003 8.000000e+002
      endloop
   endfacet
   facet normal -1.000000e+000 0.000000e+000 0.000000e+000
      outer loop
         vertex 1.200000e+004 4.670000e+003 2.081450e+003
         vertex 1.200000e+004 4.670000e+003 8.000000e+002
         vertex 1.200000e+004 4.331958e+003 8.000000e+002
      endloop
   endfacet
   facet normal -1.000000e+000 0.000000e+000 0.000000e+000
      outer loop
         vertex 1.200000e+004 4.331958e+003 4.700000e+002
         vertex 1.200000e+004 2.100000e+003 4.700000e+002
         vertex 1.200000e+004 4.331958e+003 8.000000e+002
      endloop
   endfacet
   facet normal -1.000000e+000 -0.000000e+000 0.000000e+000
      outer loop
         vertex 1.200000e+004 2.100000e+003 2.081450e+003
         vertex 1.200000e+004 4.670000e+003 2.081450e+003
         vertex 1.200000e+004 4.331958e+003 8.000000e+002
      endloop
   endfacet
   facet normal 0.000000e+000 0.000000e+000 -1.000000e+000
      outer loop
         vertex 1.074000e+004 2.000000e+003 2.199892e+003
         vertex 9.904340e+003 2.000000e+003 2.199892e+003
         vertex 9.904340e+003 2.100000e+003 2.199892e+003
      endloop
   endfacet
   facet normal 0.000000e+000 0.000000e+000 -1.000000e+000
      outer loop
         vertex 1.074000e+004 2.100000e+003 2.199892e+003
         vertex 1.074000e+004 2.000000e+003 2.199892e+003
         vertex 9.904340e+003 2.100000e+003 2.199892e+003
      endloop
   endfacet
   facet normal -1.000000e+000 0.000000e+000 0.000000e+000
      outer loop
         vertex 1.165000e+004 4.670000e+003 2.081450e+003
         vertex 1.165000e+004 2.100000e+003 2.081450e+003
         vertex 1.165000e+004 2.480000e+003 2.500000e+003
      endloop
   endfacet
   facet normal -1.000000e+000 -0.000000e+000 -0.000000e+000
      outer loop
         vertex 1.165000e+004 2.100000e+003 3.044259e+003
         vertex 1.165000e+004 2.210000e+003 3.044259e+003
         vertex 1.165000e+004 2.210000e+003 2.500000e+003
      endloop
   endfacet
   facet normal -1.000000e+000 0.000000e+000 0.000000e+000
      outer loop
         vertex 1.165000e+004 2.480000e+003 2.500000e+003
         vertex 1.165000e+004 2.480000e+003 3.044259e+003
         vertex 1.165000e+004 4.670000e+003 2.500000e+003
      endloop
   endfacet
   facet normal -1.000000e+000 0.000000e+000 0.000000e+000
      outer loop
         vertex 1.165000e+004 4.720000e+003 3.044259e+003
         vertex 1.165000e+004 4.720000e+003 2.500000e+003
         vertex 1.165000e+004 4.670000e+003 2.500000e+003
      endloop
   endfacet
   facet normal -1.000000e+000 0.000000e+000 0.000000e+000
      outer loop
         vertex 1.165000e+004 4.670000e+003 2.081450e+003
         vertex 1.165000e+004 2.480000e+003 2.500000e+003
         vertex 1.165000e+004 4.670000e+003 2.500000e+003
      endloop
   endfacet
   facet normal -1.000000e+000 0.000000e+000 0.000000e+000
      outer loop
         vertex 1.165000e+004 4.670000e+003 2.500000e+003
         vertex 1.165000e+004 2.480000e+003 3.044259e+003
         vertex 1.165000e+004 4.720000e+003 3.044259e+003
      endloop
   endfacet
   facet normal -1.000000e+000 0.000000e+000 0.000000e+000
      outer loop
         vertex 1.165000e+004 2.100000e+003 2.081450e+003
         vertex 1.165000e+004 2.100000e+003 3.044259e+003
         vertex 1.165000e+004 2.210000e+003 2.500000e+003
      endloop
   endfacet
   facet normal -1.000000e+000 0.000000e+000 0.000000e+000
      outer loop
         vertex 1.165000e+004 2.480000e+003 2.500000e+003
         vertex 1.165000e+004 2.100000e+003 2.081450e+003
         vertex 1.165000e+004 2.210000e+003 2.500000e+003
      endloop
   endfacet
   facet normal 0.000000e+000 0.000000e+000 -1.000000e+000
      outer loop
         vertex 1.165000e+004 -2.247727e-029 2.081450e+003
         vertex 1.165000e+004 2.000000e+003 2.081450e+003
         vertex 1.200000e+004 2.000000e+003 2.081450e+003
      endloop
   endfacet
   facet normal 0.000000e+000 0.000000e+000 -1.000000e+000
      outer loop
         vertex 1.200000e+004 -1.615553e-029 2.081450e+003
         vertex 1.165000e+004 -2.247727e-029 2.081450e+003
         vertex 1.200000e+004 2.000000e+003 2.081450e+003
      endloop
   endfacet
   facet normal -1.000000e+000 -0.000000e+000 0.000000e+000
      outer loop
         vertex 1.165000e+004 3.000000e+001 3.044259e+003
         vertex 1.165000e+004 2.000000e+003 3.044259e+003
         vertex 1.165000e+004 3.000000e+001 2.500000e+003
      endloop
   endfacet
   facet normal -1.000000e+000 0.000000e+000 0.000000e+000
      outer loop
         vertex 1.165000e+004 2.000000e+003 2.081450e+003
         vertex 1.165000e+004 -2.247727e-029 2.081450e+003
         vertex 1.165000e+004 3.000000e+001 2.500000e+003
      endloop
   endfacet
   facet normal -1.000000e+000 -0.000000e+000 0.000000e+000
      outer loop
         vertex 1.165000e+004 -1.123863e-029 2.500000e+003
         vertex 1.165000e+004 3.000000e+001 2.500000e+003
         vertex 1.165000e+004 -2.247727e-029 2.081450e+003
      endloop
   endfacet
   facet normal -1.000000e+000 0.000000e+000 0.000000e+000
      outer loop
         vertex 1.165000e+004 2.000000e+003 3.044259e+003
         vertex 1.165000e+004 2.000000e+003 2.081450e+003
         vertex 1.165000e+004 3.000000e+001 2.500000e+003
      endloop
   endfacet
   facet normal 0.000000e+000 -0.000000e+000 1.000000e+000
      outer loop
         vertex 1.154000e+004 0.000000e+000 4.700000e+002
         vertex 1.200000e+004 -1.615553e-029 4.700000e+002
         vertex 1.200000e+004 2.000000e+003 4.700000e+002
      endloop
   endfacet
   facet normal 0.000000e+000 0.000000e+000 1.000000e+000
      outer loop
         vertex 1.154000e+004 2.000000e+003 4.700000e+002
         vertex 1.154000e+004 0.000000e+000 4.700000e+002
         vertex 1.200000e+004 2.000000e+003 4.700000e+002
      endloop
   endfacet
   facet normal -1.000000e+000 0.000000e+000 0.000000e+000
      outer loop
         vertex 1.200000e+004 -1.615553e-029 4.700000e+002
         vertex 1.200000e+004 -1.615553e-029 2.081450e+003
         vertex 1.200000e+004 2.000000e+003 2.081450e+003
      endloop
   endfacet
   facet normal -1.000000e+000 0.000000e+000 0.000000e+000
      outer loop
         vertex 1.200000e+004 2.000000e+003 4.700000e+002
         vertex 1.200000e+004 -1.615553e-029 4.700000e+002
         vertex 1.200000e+004 2.000000e+003 2.081450e+003
      endloop
   endfacet
   facet normal 0.000000e+000 1.000000e+000 0.000000e+000
      outer loop
         vertex 7.010152e+003 3.000000e+001 2.500000e+003
         vertex 7.010152e+003 3.000000e+001 3.500640e+003
         vertex 1.165000e+004 3.000000e+001 3.044259e+003
      endloop
   endfacet
   facet normal 0.000000e+000 1.000000e+000 0.000000e+000
      outer loop
         vertex 7.010152e+003 3.000000e+001 2.500000e+003
         vertex 1.165000e+004 3.000000e+001 3.044259e+003
         vertex 1.165000e+004 3.000000e+001 2.500000e+003
      endloop
   endfacet
   facet normal -0.000000e+000 0.000000e+000 -1.000000e+000
      outer loop
         vertex 7.010152e+003 3.000000e+001 2.500000e+003
         vertex 1.165000e+004 3.000000e+001 2.500000e+003
         vertex 7.010373e+003 5.394021e-029 2.500000e+003
      endloop
   endfacet
   facet normal 0.000000e+000 0.000000e+000 -1.000000e+000
      outer loop
         vertex 1.165000e+004 -1.123863e-029 2.500000e+003
         vertex 7.010373e+003 5.394021e-029 2.500000e+003
         vertex 1.165000e+004 3.000000e+001 2.500000e+003
      endloop
   endfacet
   facet normal -0.000000e+000 0.000000e+000 -1.000000e+000
      outer loop
         vertex 7.004340e+003 8.200000e+002 2.199892e+003
         vertex 7.010373e+003 1.705303e-013 2.199892e+003
         vertex 6.895660e+003 9.192647e-014 2.199892e+003
      endloop
   endfacet
   facet normal -0.000000e+000 0.000000e+000 -1.000000e+000
      outer loop
         vertex 6.895660e+003 8.200000e+002 2.199892e+003
         vertex 7.004340e+003 8.200000e+002 2.199892e+003
         vertex 6.895660e+003 9.192647e-014 2.199892e+003
      endloop
   endfacet
   facet normal -0.000000e+000 -0.000000e+000 -1.000000e+000
      outer loop
         vertex 3.020000e+003 5.000000e+003 1.800000e+003
         vertex 4.480000e+003 5.000000e+003 1.800000e+003
         vertex 4.480000e+003 2.480000e+003 1.800000e+003
      endloop
   endfacet
   facet normal 0.000000e+000 0.000000e+000 -1.000000e+000
      outer loop
         vertex 3.020000e+003 5.000000e+003 1.800000e+003
         vertex 4.480000e+003 2.480000e+003 1.800000e+003
         vertex 3.020000e+003 2.480000e+003 1.800000e+003
      endloop
   endfacet
   facet normal -0.000000e+000 -0.000000e+000 -1.000000e+000
      outer loop
         vertex 9.900000e+003 8.897251e-030 2.199892e+003
         vertex 1.085000e+004 0.000000e+000 2.199892e+003
         vertex 1.085000e+004 -1.500000e+002 2.199892e+003
      endloop
   endfacet
   facet normal 0.000000e+000 0.000000e+000 -1.000000e+000
      outer loop
         vertex 9.900000e+003 -1.500000e+002 2.199892e+003
         vertex 9.900000e+003 8.897251e-030 2.199892e+003
         vertex 1.085000e+004 -1.500000e+002 2.199892e+003
      endloop
   endfacet
   facet normal -1.000000e+000 0.000000e+000 0.000000e+000
      outer loop
         vertex 6.614340e+003 4.720000e+003 2.500000e+003
         vertex 6.614340e+003 2.530000e+003 1.870000e+003
         vertex 6.614340e+003 2.530000e+003 3.539573e+003
      endloop
   endfacet
   facet normal -1.000000e+000 -0.000000e+000 -0.000000e+000
      outer loop
         vertex 6.614340e+003 4.720000e+003 2.500000e+003
         vertex 6.614340e+003 5.000000e+003 2.500000e+003
         vertex 6.614340e+003 5.000000e+003 1.870000e+003
      endloop
   endfacet
   facet normal -1.000000e+000 0.000000e+000 0.000000e+000
      outer loop
         vertex 6.614340e+003 4.720000e+003 2.500000e+003
         vertex 6.614340e+003 2.530000e+003 3.539573e+003
         vertex 6.614340e+003 4.720000e+003 3.539573e+003
      endloop
   endfacet
   facet normal -1.000000e+000 0.000000e+000 0.000000e+000
      outer loop
         vertex 6.614340e+003 4.720000e+003 2.500000e+003
         vertex 6.614340e+003 5.000000e+003 1.870000e+003
         vertex 6.614340e+003 2.530000e+003 1.870000e+003
      endloop
   endfacet
   facet normal 0.000000e+000 0.000000e+000 1.000000e+000
      outer loop
         vertex 3.020000e+003 3.918199e+003 1.870000e+003
         vertex 3.070000e+003 3.918199e+003 1.870000e+003
         vertex 3.020000e+003 5.000000e+003 1.870000e+003
      endloop
   endfacet
   facet normal 0.000000e+000 0.000000e+000 1.000000e+000
      outer loop
         vertex 3.070000e+003 2.530000e+003 1.870000e+003
         vertex 6.614340e+003 2.530000e+003 1.870000e+003
         vertex 3.070000e+003 3.918199e+003 1.870000e+003
      endloop
   endfacet
   facet normal 0.000000e+000 -0.000000e+000 1.000000e+000
      outer loop
         vertex 3.020000e+003 5.000000e+003 1.870000e+003
         vertex 3.070000e+003 3.918199e+003 1.870000e+003
         vertex 6.614340e+003 5.000000e+003 1.870000e+003
      endloop
   endfacet
   facet normal 0.000000e+000 0.000000e+000 1.000000e+000
      outer loop
         vertex 6.614340e+003 2.530000e+003 1.870000e+003
         vertex 6.614340e+003 5.000000e+003 1.870000e+003
         vertex 3.070000e+003 3.918199e+003 1.870000e+003
      endloop
   endfacet
   facet normal 0.000000e+000 -1.000000e+000 0.000000e+000
      outer loop
         vertex 1.165000e+004 4.720000e+003 3.044259e+003
         vertex 1.162000e+004 4.720000e+003 2.500000e+003
         vertex 1.165000e+004 4.720000e+003 2.500000e+003
      endloop
   endfacet
   facet normal 0.000000e+000 -1.000000e+000 0.000000e+000
      outer loop
         vertex 1.165000e+004 4.720000e+003 3.044259e+003
         vertex 6.714340e+003 4.720000e+003 3.529737e+003
         vertex 6.714340e+003 4.720000e+003 2.500000e+003
      endloop
   endfacet
   facet normal 0.000000e+000 -1.000000e+000 0.000000e+000
      outer loop
         vertex 1.162000e+004 4.720000e+003 2.500000e+003
         vertex 1.165000e+004 4.720000e+003 3.044259e+003
         vertex 6.714340e+003 4.720000e+003 2.500000e+003
      endloop
   endfacet
   facet normal 0.000000e+000 1.000000e+000 0.000000e+000
      outer loop
         vertex 6.714340e+003 2.480000e+003 2.500000e+003
         vertex 6.714340e+003 2.480000e+003 3.529737e+003
         vertex 1.165000e+004 2.480000e+003 3.044259e+003
      endloop
   endfacet
   facet normal 0.000000e+000 1.000000e+000 0.000000e+000
      outer loop
         vertex 6.714340e+003 2.480000e+003 2.500000e+003
         vertex 1.165000e+004 2.480000e+003 3.044259e+003
         vertex 1.165000e+004 2.480000e+003 2.500000e+003
      endloop
   endfacet
   facet normal 1.000000e+000 0.000000e+000 0.000000e+000
      outer loop
         vertex 6.714340e+003 4.720000e+003 2.500000e+003
         vertex 6.714340e+003 4.720000e+003 3.529737e+003
         vertex 6.714340e+003 2.480000e+003 3.529737e+003
      endloop
   endfacet
   facet normal 1.000000e+000 -0.000000e+000 0.000000e+000
      outer loop
         vertex 6.714340e+003 2.480000e+003 2.500000e+003
         vertex 6.714340e+003 2.430000e+003 2.500000e+003
         vertex 6.714340e+003 2.430000e+003 1.800000e+003
      endloop
   endfacet
   facet normal 1.000000e+000 0.000000e+000 0.000000e+000
      outer loop
         vertex 6.714340e+003 5.000000e+003 1.800000e+003
         vertex 6.714340e+003 5.000000e+003 2.500000e+003
         vertex 6.714340e+003 4.720000e+003 2.500000e+003
      endloop
   endfacet
   facet normal 1.000000e+000 0.000000e+000 0.000000e+000
      outer loop
         vertex 6.714340e+003 2.480000e+003 2.500000e+003
         vertex 6.714340e+003 2.430000e+003 1.800000e+003
         vertex 6.714340e+003 4.720000e+003 2.500000e+003
      endloop
   endfacet
   facet normal 1.000000e+000 0.000000e+000 0.000000e+000
      outer loop
         vertex 6.714340e+003 2.480000e+003 2.500000e+003
         vertex 6.714340e+003 4.720000e+003 2.500000e+003
         vertex 6.714340e+003 2.480000e+003 3.529737e+003
      endloop
   endfacet
   facet normal 1.000000e+000 0.000000e+000 0.000000e+000
      outer loop
         vertex 6.714340e+003 2.430000e+003 1.800000e+003
         vertex 6.714340e+003 5.000000e+003 1.800000e+003
         vertex 6.714340e+003 4.720000e+003 2.500000e+003
      endloop
   endfacet
   facet normal -1.000000e+000 0.000000e+000 0.000000e+000
      outer loop
         vertex 1.162000e+004 5.000000e+003 8.000000e+002
         vertex 1.162000e+004 4.670000e+003 8.000000e+002
         vertex 1.162000e+004 4.720000e+003 2.500000e+003
      endloop
   endfacet
   facet normal -1.000000e+000 -0.000000e+000 0.000000e+000
      outer loop
         vertex 1.162000e+004 4.670000e+003 2.500000e+003
         vertex 1.162000e+004 4.720000e+003 2.500000e+003
         vertex 1.162000e+004 4.670000e+003 8.000000e+002
      endloop
   endfacet
   facet normal -1.000000e+000 0.000000e+000 0.000000e+000
      outer loop
         vertex 1.162000e+004 5.000000e+003 8.000000e+002
         vertex 1.162000e+004 4.720000e+003 2.500000e+003
         vertex 1.162000e+004 5.000000e+003 2.500000e+003
      endloop
   endfacet
   facet normal -0.000000e+000 -1.000000e+000 -0.000000e+000
      outer loop
         vertex 1.200000e+004 4.670000e+003 8.000000e+002
         vertex 1.200000e+004 4.670000e+003 2.081450e+003
         vertex 1.165000e+004 4.670000e+003 2.081450e+003
      endloop
   endfacet
   facet normal 0.000000e+000 -1.000000e+000 0.000000e+000
      outer loop
         vertex 1.165000e+004 4.670000e+003 2.500000e+003
         vertex 1.162000e+004 4.670000e+003 2.500000e+003
         vertex 1.165000e+004 4.670000e+003 2.081450e+003
      endloop
   endfacet
   facet normal 0.000000e+000 -1.000000e+000 -0.000000e+000
      outer loop
         vertex 1.200000e+004 4.670000e+003 8.000000e+002
         vertex 1.165000e+004 4.670000e+003 2.081450e+003
         vertex 1.162000e+004 4.670000e+003 8.000000e+002
      endloop
   endfacet
   facet normal 0.000000e+000 -1.000000e+000 0.000000e+000
      outer loop
         vertex 1.162000e+004 4.670000e+003 2.500000e+003
         vertex 1.162000e+004 4.670000e+003 8.000000e+002
         vertex 1.165000e+004 4.670000e+003 2.081450e+003
      endloop
   endfacet
   facet normal -0.000000e+000 -0.000000e+000 -1.000000e+000
      outer loop
         vertex 6.714340e+003 5.000000e+003 2.500000e+003
         vertex 1.162000e+004 5.000000e+003 2.500000e+003
         vertex 1.162000e+004 4.720000e+003 2.500000e+003
      endloop
   endfacet
   facet normal 0.000000e+000 0.000000e+000 -1.000000e+000
      outer loop
         vertex 6.714340e+003 4.720000e+003 2.500000e+003
         vertex 6.714340e+003 5.000000e+003 2.500000e+003
         vertex 1.162000e+004 4.720000e+003 2.500000e+003
      endloop
   endfacet
   facet normal 0.000000e+000 -0.000000e+000 1.000000e+000
      outer loop
         vertex 1.162000e+004 4.670000e+003 2.500000e+003
         vertex 1.165000e+004 4.670000e+003 2.500000e+003
         vertex 1.165000e+004 4.720000e+003 2.500000e+003
      endloop
   endfacet
   facet normal 0.000000e+000 0.000000e+000 1.000000e+000
      outer loop
         vertex 1.162000e+004 4.720000e+003 2.500000e+003
         vertex 1.162000e+004 4.670000e+003 2.500000e+003
         vertex 1.165000e+004 4.720000e+003 2.500000e+003
      endloop
   endfacet
endsolid
